<svg version="1.0" xmlns="http://www.w3.org/2000/svg" width="1800.000000pt" height="2400.000000pt" viewBox="0 0 1800.000000 2400.000000" preserveAspectRatio="xMidYMid meet" style="width: 374.451px; height: auto;"> <g transform="translate(0.000000,2400.000000) scale(0.100000,-0.100000)"> <path d="M8606 23908 l-16 -22 0 -462 0 -461 21 -27 20 -26 154 0 154 0 68 15 c210 47 346 186 388 395 53 263 -84 510 -330 593 l-49 17 -197 0 -198 0 -15 -22z m408 -118 c114 -39 189 -116 227 -232 l20 -63 -4 -85 -3 -85 -23 -57 -22 -58 -52 -54 -52 -54 -50 -21 c-59 -24 -156 -41 -240 -41 l-61 0 -12 12 -12 12 0 366 c0 202 3 370 7 373 3 4 54 7 113 7 l107 0 57 -20z"></path> <path d="M7925 23868 l-28 -21 7 -71 c4 -39 11 -88 17 -109 5 -20 14 -65 19 -100 18 -125 41 -263 50 -297 6 -19 10 -59 10 -88 l0 -54 -10 4 c-5 2 -155 148 -332 324 -178 177 -333 325 -344 328 -31 9 -67 -8 -84 -38 l-14 -27 13 -50 c7 -27 17 -80 22 -117 21 -147 38 -260 48 -322 6 -36 17 -119 26 -185 16 -116 32 -213 41 -246 3 -9 18 -22 34 -29 l30 -12 31 12 31 13 10 26 10 26 -12 70 c-6 39 -16 86 -21 105 -5 19 -13 67 -18 105 -18 125 -32 209 -46 276 -8 37 -15 81 -15 98 l0 31 12 0 c11 0 352 -333 581 -567 l80 -83 34 0 33 0 21 21 21 21 -5 51 c-3 29 -9 75 -15 102 -5 28 -17 102 -26 165 -9 63 -21 142 -27 175 -5 33 -14 92 -19 130 -42 330 -42 329 -86 345 -37 14 -48 13 -79 -12z"></path> <path d="M10718 23726 c-81 -28 -135 -63 -204 -134 l-51 -54 -31 -66 c-17 -37 -38 -92 -47 -122 l-16 -56 4 -99 c9 -241 130 -396 367 -476 l55 -19 111 0 112 0 38 15 c22 9 63 28 92 42 l53 26 62 67 c79 87 111 148 141 272 29 123 14 244 -47 358 l-32 62 -60 57 c-70 65 -142 106 -237 132 l-68 19 -87 -1 -88 -1 -67 -22z m237 -120 c149 -29 245 -107 298 -244 l17 -42 0 -79 0 -78 -20 -64 c-26 -80 -61 -131 -127 -186 l-53 -42 -68 -21 c-134 -39 -265 -9 -370 85 l-51 46 -31 66 -32 67 1 96 0 97 20 51 c54 137 140 214 273 247 70 17 63 17 143 1z"></path> <path d="M6363 23552 c-42 -6 -72 -110 -73 -252 0 -30 -5 -82 -10 -115 -6 -33 -17 -125 -25 -205 -31 -305 -36 -344 -45 -384 -14 -61 -12 -72 16 -105 l26 -31 32 0 33 0 18 20 18 20 8 102 8 101 13 12 c7 6 38 18 68 27 70 21 239 73 308 95 l53 17 7 -10 c4 -5 33 -45 65 -87 l58 -78 27 -10 26 -10 23 10 c13 6 30 26 39 44 l16 34 -23 35 c-13 20 -78 101 -145 180 -124 146 -199 237 -376 458 l-101 125 -21 5 c-12 3 -31 4 -43 2z m173 -354 c43 -56 96 -122 117 -146 21 -25 45 -56 54 -69 l16 -24 -9 -8 c-9 -8 -55 -24 -174 -58 -30 -8 -70 -22 -88 -29 -74 -31 -79 -21 -58 135 9 69 19 165 22 214 l6 87 17 0 18 0 79 -102z"></path> <path d="M11922 23453 c-13 -5 -52 -75 -52 -94 0 -6 -6 -25 -14 -42 -8 -18 -16 -41 -19 -52 -3 -11 -15 -45 -27 -75 -11 -30 -30 -82 -42 -115 -11 -33 -26 -73 -33 -90 -14 -35 -34 -85 -66 -170 -13 -33 -27 -64 -31 -69 -4 -6 -8 -16 -8 -24 0 -8 -6 -28 -14 -45 -55 -119 -56 -129 -16 -169 l31 -30 31 6 c40 8 88 74 88 123 0 8 6 29 14 46 8 18 29 75 46 127 18 52 36 99 40 103 8 9 30 1 224 -77 l147 -60 27 10 c14 5 33 22 42 37 l15 27 -15 28 c-20 35 -42 45 -230 108 -85 28 -156 57 -158 63 -3 10 10 49 48 136 4 11 11 29 14 40 12 47 35 100 44 103 6 2 44 -11 84 -27 40 -17 77 -31 83 -31 5 0 21 -6 35 -13 14 -7 48 -21 75 -31 28 -10 64 -25 80 -32 132 -58 161 -63 199 -33 l26 20 0 28 0 28 -22 20 c-26 22 -71 44 -143 67 -55 19 -171 60 -225 81 -223 87 -242 93 -278 78z"></path> <path d="M5040 23050 l-20 -20 0 -38 c0 -21 6 -46 13 -57 12 -17 70 -141 122 -260 7 -16 27 -61 44 -98 17 -38 31 -70 31 -72 0 -2 20 -45 44 -97 24 -51 60 -133 81 -181 l38 -88 20 -10 20 -11 34 5 c29 5 120 43 184 77 9 4 61 27 115 50 54 24 122 53 151 66 28 13 55 24 58 24 14 0 44 46 45 68 l0 24 -29 29 c-42 42 -29 45 -286 -75 -169 -80 -206 -96 -214 -96 -5 0 -46 87 -91 193 -72 168 -105 243 -140 322 -5 11 -18 43 -30 70 -12 28 -28 64 -36 82 -8 17 -14 36 -14 41 0 6 -12 24 -26 41 l-26 31 -34 0 -34 0 -20 -20z"></path> <path d="M13446 22765 l-26 -24 0 -26 c0 -35 23 -55 150 -125 61 -35 114 -68 116 -75 4 -10 -76 -155 -96 -175 -3 -3 -10 -14 -17 -25 -66 -112 -198 -326 -240 -388 -29 -43 -60 -94 -69 -114 l-17 -35 18 -34 18 -34 25 -7 c14 -3 36 -2 50 3 l26 9 107 175 c60 96 111 182 115 190 4 8 52 90 107 183 l100 167 14 0 c9 0 66 -34 128 -75 l113 -75 24 0 c13 0 34 9 46 20 l22 21 0 33 0 32 -24 22 c-26 22 -96 65 -132 81 -29 13 -292 173 -379 230 -124 82 -137 85 -179 46z"></path> <path d="M4334 22681 c-137 -54 -254 -175 -286 -294 l-12 -46 18 -57 c10 -31 23 -64 29 -72 30 -37 74 -75 111 -95 l41 -21 90 -1 91 0 44 19 c25 10 53 22 63 27 43 23 116 42 157 42 l45 0 35 -20 c37 -21 77 -71 86 -110 l6 -24 -16 -44 c-21 -55 -79 -113 -148 -149 l-53 -28 -61 -5 -62 -6 -44 23 -44 22 -34 -4 -33 -3 -20 -27 -20 -26 7 -26 6 -26 41 -26 c23 -14 68 -31 100 -37 l59 -11 74 12 73 11 70 36 c123 63 209 161 233 266 l12 56 -11 52 -11 53 -35 51 -34 52 -53 35 -53 35 -95 0 -96 0 -44 -19 c-25 -10 -53 -22 -62 -27 -131 -67 -241 -61 -289 18 l-21 34 5 45 5 44 25 34 c34 44 114 94 176 111 l49 13 50 -13 c28 -8 60 -18 71 -24 29 -16 49 -14 82 10 l29 20 0 26 0 25 -29 26 c-15 15 -51 35 -78 45 l-51 17 -73 -1 -74 -1 -41 -17z"></path> <path d="M3497 22129 c-10 -6 -27 -24 -37 -41 l-18 -31 11 -26 c7 -14 38 -60 70 -101 73 -93 110 -143 304 -405 85 -115 164 -220 176 -232 l20 -23 29 0 29 0 24 26 25 27 0 25 0 25 -107 141 c-59 78 -111 146 -116 151 -15 19 -222 302 -232 317 -85 132 -134 173 -178 147z"></path> <path d="M8425 22054 c-254 -23 -403 -44 -725 -99 -92 -16 -292 -58 -360 -76 -19 -5 -82 -21 -140 -35 -182 -45 -206 -51 -246 -63 -22 -7 -48 -16 -59 -21 -11 -5 -42 -15 -70 -23 -27 -8 -88 -29 -135 -47 -47 -17 -94 -34 -105 -37 -11 -3 -34 -11 -52 -19 -17 -8 -37 -14 -45 -14 -8 0 -18 -4 -24 -8 -5 -5 -38 -20 -74 -32 -36 -13 -76 -30 -90 -37 -14 -7 -30 -13 -37 -13 -6 0 -24 -7 -40 -15 -42 -21 -162 -75 -169 -75 -3 0 -67 -30 -142 -66 -201 -97 -251 -122 -317 -159 -33 -19 -74 -40 -90 -48 -66 -30 -483 -287 -637 -392 -70 -47 -358 -262 -368 -275 -3 -3 -52 -43 -110 -90 -214 -172 -595 -530 -744 -700 -21 -25 -62 -70 -90 -100 -162 -174 -520 -637 -615 -795 -14 -22 -27 -42 -31 -45 -3 -3 -24 -34 -46 -69 -21 -35 -46 -74 -54 -86 -36 -56 -130 -215 -158 -265 -16 -30 -39 -71 -50 -90 -22 -37 -208 -410 -234 -470 -9 -19 -27 -60 -41 -90 -34 -74 -61 -138 -77 -180 -7 -19 -22 -55 -32 -80 -11 -25 -23 -54 -28 -65 -8 -21 -53 -148 -90 -255 -12 -36 -25 -74 -30 -85 -4 -11 -17 -54 -30 -95 -12 -41 -25 -84 -30 -95 -5 -11 -13 -38 -18 -60 -6 -22 -24 -94 -42 -160 -18 -66 -38 -147 -46 -180 -7 -33 -20 -91 -29 -130 -9 -38 -20 -96 -25 -128 -6 -33 -12 -62 -15 -67 -2 -4 -12 -52 -21 -106 -49 -305 -66 -452 -89 -764 l-16 -215 5 -2770 5 -2770 9 -105 c18 -191 41 -393 57 -500 42 -279 51 -322 120 -635 19 -88 58 -238 90 -345 9 -30 21 -73 26 -95 9 -35 25 -86 48 -150 5 -11 18 -51 30 -90 13 -38 29 -84 37 -102 8 -17 14 -37 14 -45 0 -8 4 -18 9 -23 4 -6 16 -35 25 -65 10 -30 24 -68 31 -85 7 -16 39 -91 70 -165 88 -208 223 -490 307 -640 13 -25 41 -75 62 -113 39 -72 128 -220 180 -302 17 -27 36 -57 41 -67 51 -88 355 -508 444 -613 14 -17 46 -55 71 -84 111 -133 178 -210 230 -266 93 -102 431 -437 505 -502 110 -96 216 -185 270 -228 49 -40 98 -80 119 -100 6 -6 34 -26 61 -45 28 -18 66 -47 85 -63 31 -26 127 -95 190 -137 13 -8 49 -34 81 -58 33 -23 63 -42 68 -42 5 0 16 -6 23 -13 19 -19 132 -91 288 -184 126 -75 190 -110 395 -218 44 -23 89 -47 100 -53 18 -10 81 -39 215 -99 25 -12 74 -33 110 -47 36 -15 89 -38 118 -52 29 -13 55 -24 58 -24 3 0 26 -10 52 -22 61 -28 196 -76 407 -144 94 -31 179 -60 190 -64 18 -8 123 -35 290 -76 332 -82 738 -154 975 -174 63 -5 147 -14 185 -20 l70 -11 580 4 580 4 140 16 c242 28 510 67 630 92 44 10 109 23 145 30 140 28 421 98 535 134 219 70 445 144 472 157 17 8 35 14 40 14 10 0 193 74 237 96 16 8 33 14 37 14 4 0 55 22 114 50 59 27 109 50 112 50 27 0 518 260 708 375 221 134 725 488 811 569 6 6 28 25 49 41 44 34 202 171 226 194 8 9 52 49 97 89 92 84 286 276 381 378 35 38 78 85 96 104 59 64 246 284 294 346 116 152 228 301 243 324 10 14 35 50 57 80 34 48 168 250 196 298 6 9 22 36 38 59 15 23 27 46 27 52 0 5 6 16 14 23 8 8 26 37 40 64 14 27 46 85 70 129 70 125 296 583 296 600 0 3 13 33 29 67 16 35 40 92 54 128 52 133 127 337 127 344 0 4 6 22 13 39 13 31 65 191 92 287 7 25 20 70 29 100 9 30 29 107 45 170 33 130 45 187 85 390 9 47 20 105 26 130 5 25 16 97 25 160 9 63 23 162 31 220 22 162 33 310 45 615 l10 280 -4 2545 -3 2545 -12 120 c-6 66 -16 176 -22 245 -19 248 -67 591 -113 815 -8 39 -20 95 -26 125 -6 30 -18 80 -26 110 -7 30 -21 84 -30 120 -8 36 -22 88 -30 115 -8 28 -21 77 -30 110 -9 33 -20 69 -25 80 -4 11 -25 74 -45 140 -21 66 -41 129 -45 140 -5 11 -18 49 -30 85 -12 36 -26 74 -30 85 -5 11 -19 45 -31 75 -12 30 -28 69 -35 87 -8 17 -14 36 -14 42 0 6 -4 19 -9 29 -9 16 -27 56 -64 142 -210 485 -523 1016 -875 1485 -42 55 -78 102 -82 105 -3 3 -24 27 -45 55 -22 27 -50 61 -61 75 -163 191 -222 259 -296 335 -47 49 -95 101 -106 115 -50 64 -491 462 -699 630 -6 5 -87 65 -180 134 -92 69 -172 129 -178 133 -20 16 -241 161 -304 199 -35 21 -74 46 -86 54 -107 68 -429 243 -635 345 -57 28 -190 87 -310 137 -52 22 -108 46 -125 53 -16 7 -55 21 -85 31 -30 9 -59 20 -65 24 -14 9 -160 62 -275 99 -52 17 -131 42 -175 57 -44 14 -105 32 -135 39 -30 7 -80 21 -110 30 -30 9 -75 20 -100 25 -25 5 -58 13 -75 18 -16 6 -66 18 -110 27 -44 9 -109 23 -145 31 -36 8 -94 19 -130 24 -36 5 -105 17 -155 25 -150 25 -310 45 -520 65 l-200 20 -450 -2 -450 -1 -140 -13z m1090 -129 c121 -8 249 -19 285 -24 63 -10 172 -23 330 -42 41 -4 93 -13 115 -18 22 -5 83 -17 135 -26 52 -8 122 -22 155 -30 33 -9 80 -19 105 -24 52 -11 250 -62 330 -86 30 -9 73 -21 95 -26 41 -10 294 -93 330 -109 11 -4 49 -18 85 -30 36 -12 79 -29 97 -36 17 -8 36 -14 42 -14 6 0 19 -4 29 -10 9 -5 40 -19 67 -30 28 -12 59 -25 70 -30 11 -4 61 -25 110 -45 128 -52 504 -239 608 -302 48 -29 90 -53 94 -53 21 0 567 -351 593 -381 3 -3 30 -23 60 -44 524 -363 1216 -1057 1599 -1605 299 -427 507 -784 706 -1215 69 -148 95 -208 95 -219 0 -7 4 -16 8 -21 4 -6 18 -37 31 -70 13 -33 29 -74 37 -92 8 -17 14 -38 14 -46 0 -9 4 -18 8 -21 4 -2 32 -78 62 -168 29 -90 59 -177 67 -195 7 -17 13 -37 13 -44 0 -7 6 -31 14 -54 27 -80 40 -121 47 -155 4 -19 15 -64 24 -100 51 -203 65 -265 91 -395 32 -163 63 -364 84 -535 6 -52 15 -129 21 -170 5 -41 14 -178 19 -305 6 -126 15 -270 20 -320 l10 -90 -1 -2425 0 -2425 -9 -185 c-14 -284 -29 -498 -40 -575 -6 -38 -21 -149 -35 -245 -13 -96 -31 -211 -40 -255 -26 -135 -43 -217 -60 -290 -8 -38 -20 -90 -25 -114 -6 -25 -14 -59 -19 -75 -6 -17 -17 -60 -26 -96 -10 -36 -23 -83 -29 -105 -7 -22 -20 -65 -29 -95 -53 -179 -187 -554 -243 -680 -27 -59 -42 -93 -60 -135 -57 -133 -201 -426 -273 -554 -29 -51 -56 -100 -61 -110 -14 -25 -140 -234 -195 -321 -71 -112 -219 -327 -254 -367 -6 -6 -23 -29 -38 -51 -75 -105 -259 -331 -422 -517 -218 -247 -831 -809 -1028 -942 -10 -7 -49 -35 -88 -63 -92 -66 -245 -170 -250 -170 -2 0 -32 -20 -67 -44 -83 -58 -318 -199 -443 -266 -55 -29 -120 -65 -145 -78 -65 -36 -266 -136 -325 -161 -27 -12 -59 -26 -70 -31 -11 -5 -55 -25 -98 -44 -42 -19 -96 -42 -120 -50 -23 -8 -89 -33 -147 -56 -58 -22 -109 -40 -115 -40 -5 -1 -28 -9 -50 -20 -22 -11 -48 -19 -58 -20 -9 0 -25 -4 -35 -9 -25 -14 -115 -42 -282 -91 -41 -12 -86 -26 -100 -30 -14 -5 -63 -19 -110 -30 -47 -11 -107 -27 -135 -34 -71 -19 -143 -35 -195 -42 -25 -4 -52 -10 -60 -15 -9 -4 -49 -12 -90 -18 -41 -6 -113 -17 -160 -25 -192 -31 -411 -58 -640 -78 l-145 -12 -360 0 -360 -1 -145 13 c-288 26 -536 53 -565 62 -16 4 -55 11 -85 15 -88 10 -261 42 -383 71 -32 8 -67 14 -77 14 -10 0 -40 6 -66 14 -27 8 -78 22 -114 30 -189 47 -664 198 -775 245 -11 5 -45 19 -75 31 -30 11 -64 25 -75 30 -18 8 -65 28 -145 62 -378 159 -983 499 -1287 725 -28 21 -77 56 -109 78 -48 33 -268 204 -339 263 -11 9 -43 35 -70 57 -157 125 -472 431 -677 656 -97 106 -225 260 -330 394 -8 10 -87 113 -125 162 -43 56 -234 332 -258 374 -5 10 -32 53 -59 96 -114 181 -187 312 -310 559 -72 143 -138 278 -147 300 -9 21 -30 71 -46 109 -68 160 -106 256 -153 387 -69 198 -89 256 -105 313 -9 33 -21 69 -26 80 -5 11 -13 38 -18 60 -6 22 -17 67 -26 100 -21 78 -43 165 -60 240 -7 33 -16 69 -19 80 -13 54 -46 221 -61 310 -8 55 -20 120 -25 145 -10 46 -19 121 -40 330 -6 63 -16 149 -22 190 l-12 75 -3 2845 -4 2845 11 135 c33 433 80 739 174 1153 32 136 89 353 105 397 5 14 19 59 31 100 11 41 25 83 31 92 5 10 9 24 9 33 0 8 6 29 14 47 8 18 36 92 61 163 48 132 78 206 95 237 6 10 10 23 10 30 0 7 14 40 30 73 16 33 30 63 30 67 0 17 191 409 274 560 40 74 216 367 263 438 16 25 47 72 69 105 58 90 205 295 236 329 10 11 30 38 45 60 30 45 188 236 293 356 222 254 451 479 729 720 35 30 69 60 75 65 6 6 34 28 61 50 28 22 55 45 60 51 9 11 180 136 235 174 13 8 35 24 49 36 70 55 214 155 279 195 40 24 84 51 97 59 28 19 293 178 319 192 137 74 479 248 489 248 3 0 53 23 112 50 59 28 112 50 119 50 6 0 16 4 22 8 8 7 50 24 164 67 33 12 69 25 158 59 136 52 206 76 222 76 10 0 21 4 24 9 3 5 23 12 43 16 21 4 43 11 48 15 6 5 29 13 50 19 22 6 67 17 100 26 33 9 87 23 120 31 33 9 87 22 120 31 33 8 87 20 121 27 34 7 66 16 71 19 6 4 39 11 74 17 35 6 100 17 144 25 167 30 206 36 500 74 44 6 163 16 265 22 102 6 187 13 189 15 2 2 140 4 305 4 l301 0 220 -15z" class=""></path> <path d="M8710 21350 c-74 -4 -151 -10 -170 -14 -19 -3 -89 -11 -155 -16 -113 -9 -222 -22 -445 -54 -115 -16 -347 -62 -415 -81 -27 -8 -88 -24 -135 -36 -126 -31 -182 -46 -215 -57 -16 -5 -57 -18 -90 -27 -33 -10 -91 -28 -130 -41 -38 -14 -97 -34 -130 -45 -33 -11 -69 -24 -80 -29 -11 -5 -45 -19 -75 -30 -30 -12 -86 -35 -124 -51 -38 -16 -72 -29 -77 -29 -4 0 -36 -13 -71 -29 -35 -16 -92 -42 -127 -57 -154 -69 -529 -267 -651 -344 -8 -5 -53 -33 -100 -62 -140 -86 -444 -297 -534 -371 -22 -18 -60 -48 -85 -67 -25 -19 -82 -66 -127 -105 -44 -38 -112 -97 -149 -130 -174 -151 -379 -355 -570 -565 -130 -143 -394 -487 -528 -685 -107 -159 -267 -420 -267 -435 0 -5 -6 -15 -12 -22 -7 -8 -21 -29 -31 -47 -9 -18 -38 -72 -64 -119 -73 -136 -133 -259 -210 -432 -41 -92 -50 -113 -68 -165 -10 -27 -22 -54 -25 -60 -4 -5 -17 -37 -28 -70 -12 -33 -30 -85 -42 -115 -27 -72 -83 -240 -105 -315 -9 -33 -22 -73 -27 -90 -14 -42 -34 -119 -84 -317 -8 -35 -17 -74 -20 -88 -3 -14 -11 -54 -19 -90 -50 -240 -84 -468 -112 -755 l-16 -160 -4 -2670 -5 -2670 12 -175 c27 -407 65 -702 125 -980 8 -36 17 -78 20 -95 22 -108 82 -347 103 -410 5 -16 18 -57 27 -90 27 -96 119 -367 145 -430 5 -11 18 -42 29 -69 12 -27 21 -52 21 -57 0 -4 14 -38 31 -76 33 -74 37 -83 70 -158 12 -27 45 -97 74 -155 49 -100 64 -129 165 -315 62 -116 263 -447 327 -540 67 -97 309 -420 332 -443 18 -18 79 -92 122 -148 55 -71 201 -227 373 -399 186 -185 214 -211 351 -329 44 -38 91 -78 105 -90 161 -139 687 -505 865 -601 67 -37 118 -66 160 -92 91 -56 430 -221 600 -292 55 -23 109 -46 120 -51 31 -15 151 -59 235 -86 41 -13 84 -28 95 -33 11 -4 47 -16 80 -26 33 -9 78 -23 100 -30 64 -19 146 -43 210 -60 33 -9 83 -22 110 -30 28 -8 79 -22 115 -30 36 -9 90 -23 120 -31 30 -7 82 -19 115 -25 33 -6 94 -17 135 -25 496 -97 1305 -122 1880 -60 358 39 760 112 940 171 25 8 55 15 67 15 12 0 24 4 27 9 3 5 26 12 51 15 24 4 47 11 50 15 2 5 21 12 42 16 43 8 384 119 430 140 17 8 36 15 42 15 11 0 69 24 113 46 14 8 31 14 36 14 6 0 40 14 75 30 36 17 68 30 70 30 14 0 449 211 472 229 5 5 50 29 98 55 130 69 214 121 467 289 161 107 395 277 420 306 3 3 52 44 110 91 189 153 230 190 440 400 183 183 393 413 501 550 24 30 53 66 66 80 13 14 23 28 23 32 0 3 6 13 13 20 60 63 299 411 402 586 6 9 23 36 38 60 15 23 37 59 48 80 11 20 30 55 43 77 98 175 266 509 266 530 0 3 13 33 29 67 60 133 106 249 167 423 14 39 28 79 33 90 5 11 19 54 31 95 36 121 53 174 61 195 7 20 17 58 43 165 8 30 23 91 34 135 11 44 23 98 26 120 4 22 11 54 16 70 5 17 16 75 25 130 9 55 23 132 31 170 8 39 19 108 24 155 5 47 19 177 32 290 l23 205 0 2755 0 2755 -18 160 c-26 245 -27 253 -42 365 -28 208 -70 432 -119 635 -37 150 -45 183 -61 235 -9 30 -19 64 -22 75 -16 64 -77 255 -89 282 -8 17 -14 40 -14 50 0 10 -4 23 -8 29 -5 5 -19 38 -31 74 -13 36 -27 74 -32 85 -5 11 -18 45 -29 75 -11 30 -25 64 -30 75 -5 11 -18 43 -30 70 -76 177 -176 387 -255 530 -21 39 -49 90 -62 115 -20 36 -135 229 -206 344 -7 11 -35 52 -62 90 -28 39 -68 98 -90 131 -22 33 -46 66 -52 73 -7 7 -13 16 -13 20 0 4 -14 22 -30 41 -17 18 -30 37 -30 40 0 3 -10 17 -23 31 -12 14 -29 36 -38 50 -14 22 -104 130 -263 315 -152 178 -407 437 -555 565 -35 30 -74 65 -87 77 -13 12 -63 54 -111 95 -48 40 -90 76 -93 79 -18 21 -350 262 -470 341 -215 141 -263 172 -281 179 -8 4 -47 26 -85 49 -56 35 -212 118 -384 205 -99 50 -354 165 -423 190 -26 10 -50 22 -53 26 -3 5 -13 9 -22 9 -9 1 -35 9 -57 20 -22 11 -46 19 -53 20 -7 0 -20 4 -30 10 -30 16 -316 108 -547 175 -123 35 -258 68 -345 85 -30 5 -89 17 -130 25 -133 28 -404 68 -580 85 -58 6 -139 15 -180 20 -103 13 -675 20 -840 10z m870 -148 c68 -6 156 -16 195 -22 38 -5 104 -14 145 -19 41 -6 120 -17 175 -26 55 -9 116 -19 135 -21 32 -5 164 -33 250 -54 19 -5 58 -14 85 -20 167 -37 512 -136 555 -159 9 -5 30 -12 48 -15 17 -4 34 -12 37 -17 4 -5 13 -9 22 -9 16 0 184 -63 215 -80 10 -6 23 -10 30 -10 6 0 39 -13 72 -29 34 -15 102 -45 151 -67 91 -38 379 -182 490 -244 33 -18 71 -40 85 -47 14 -8 37 -22 52 -31 15 -9 60 -37 100 -61 169 -102 526 -345 558 -380 3 -4 23 -19 46 -34 22 -15 49 -35 60 -45 10 -9 41 -35 69 -57 88 -71 99 -80 119 -100 12 -11 62 -56 111 -100 202 -178 679 -674 664 -690 -2 -2 -39 -8 -81 -14 -158 -22 -267 -77 -378 -190 l-65 -67 -32 -65 c-18 -35 -40 -91 -50 -124 -9 -33 -20 -64 -24 -69 l-8 -9 -13 10 c-66 51 -261 41 -388 -20 l-65 -32 -57 -57 c-66 -67 -100 -121 -128 -204 l-20 -59 0 -78 c0 -43 5 -87 11 -98 l10 -20 -12 -15 -12 -15 -252 7 -253 7 -31 -22 -31 -22 0 -35 0 -34 33 -20 32 -20 317 4 317 3 25 17 26 16 0 40 c0 21 -4 41 -9 45 -15 9 -41 109 -41 157 0 126 88 258 216 322 l55 28 91 0 92 0 70 -36 c79 -40 115 -45 138 -18 l15 17 6 81 c3 44 9 89 15 100 5 10 20 41 33 69 79 171 263 286 457 285 57 -1 134 -22 140 -38 1 -5 37 -56 80 -114 137 -189 187 -262 233 -336 24 -40 51 -84 59 -97 42 -64 158 -262 209 -355 31 -58 163 -323 186 -375 10 -22 33 -72 51 -112 19 -39 34 -75 34 -80 0 -5 11 -32 25 -60 13 -28 27 -64 31 -80 4 -15 10 -32 14 -38 4 -5 17 -39 29 -75 13 -36 27 -74 32 -85 11 -26 72 -214 93 -290 10 -33 22 -71 27 -85 4 -14 13 -43 18 -65 6 -22 17 -67 26 -100 16 -56 24 -91 55 -235 6 -30 15 -71 20 -90 14 -56 42 -210 50 -270 4 -30 13 -95 19 -145 6 -49 16 -119 22 -155 13 -77 24 -242 40 -593 l12 -258 -10 -10 -11 -11 -39 12 c-21 7 -53 19 -71 26 -18 8 -40 14 -49 14 -9 0 -39 6 -67 14 -82 23 -189 46 -210 46 -11 0 -47 6 -80 14 -135 31 -395 58 -693 72 l-141 6 -194 -16 c-214 -19 -392 -41 -483 -61 -33 -8 -96 -21 -140 -31 -44 -9 -118 -28 -165 -41 -47 -13 -101 -28 -120 -33 -19 -4 -62 -18 -95 -29 -33 -12 -73 -26 -90 -30 -16 -5 -41 -13 -55 -19 -14 -5 -45 -18 -70 -27 -25 -10 -54 -21 -65 -26 -11 -4 -49 -20 -85 -35 -176 -71 -532 -267 -556 -305 -8 -14 -44 -11 -50 5 -3 7 2 30 10 51 9 21 16 46 16 56 0 10 6 33 14 51 17 41 35 93 46 133 35 125 57 154 150 197 194 90 348 122 687 144 l102 7 61 -12 62 -12 23 15 c46 30 45 94 -1 115 l-27 12 -133 6 -133 6 -128 -17 c-205 -27 -293 -48 -441 -102 l-63 -23 -6 15 c-6 15 -2 25 27 69 11 17 23 37 27 45 3 8 19 34 35 57 15 23 28 46 28 52 0 25 177 120 285 153 122 38 307 68 417 68 86 0 384 -26 398 -35 6 -4 62 -17 125 -30 63 -13 122 -28 132 -33 10 -5 61 -24 113 -42 52 -17 123 -45 158 -61 73 -33 89 -35 119 -11 24 19 31 46 20 78 l-7 21 -63 30 c-34 16 -91 40 -127 52 -36 13 -74 27 -85 31 -48 19 -115 39 -185 55 -41 10 -97 23 -125 30 -27 8 -106 21 -175 30 l-125 17 -165 -5 -165 -5 -75 -15 c-97 -20 -156 -36 -202 -55 -20 -8 -44 -12 -53 -8 l-16 6 13 19 c47 66 266 289 291 296 12 4 31 10 42 15 148 68 350 112 585 127 l85 5 100 -11 c156 -19 324 -58 383 -91 9 -5 35 -17 57 -26 49 -21 201 -111 234 -139 14 -11 51 -44 83 -72 75 -68 131 -62 153 16 l7 23 -56 53 c-98 93 -243 183 -421 261 -44 20 -89 39 -100 44 -34 15 -145 39 -265 56 l-115 16 -130 -5 c-132 -6 -214 -17 -317 -43 -142 -35 -130 -16 92 151 36 27 67 52 70 55 58 65 348 118 550 99 148 -13 249 -28 269 -39 11 -5 28 -10 38 -10 10 0 31 -7 47 -15 15 -8 36 -15 45 -15 9 0 29 -7 45 -15 15 -8 32 -15 37 -15 28 0 247 -119 300 -162 l33 -28 36 0 37 0 17 19 17 19 -3 33 -3 33 -65 45 c-58 40 -287 161 -305 161 -4 0 -21 6 -38 13 -31 13 -81 29 -197 61 -86 25 -270 46 -390 46 -61 0 -110 4 -110 8 0 8 54 52 64 52 3 0 47 25 98 56 50 31 101 60 113 65 11 5 40 22 65 37 l45 27 140 -1 140 -1 39 -16 c21 -10 45 -17 53 -17 48 0 218 -106 287 -179 l30 -31 31 0 32 0 18 20 18 20 0 30 0 31 -34 35 c-60 63 -164 125 -304 183 -11 5 -56 17 -100 27 -127 28 -128 27 173 145 49 19 52 98 5 123 l-28 14 -40 -15 c-41 -16 -338 -157 -365 -173 -8 -6 -29 -16 -46 -24 -18 -8 -74 -38 -125 -67 -52 -29 -110 -61 -129 -71 -19 -11 -47 -27 -62 -36 -15 -9 -67 -42 -115 -71 -82 -51 -189 -121 -308 -201 -57 -39 -277 -204 -315 -236 -217 -186 -421 -386 -540 -529 -45 -55 -86 -102 -89 -105 -19 -14 -121 -156 -209 -290 -58 -89 -221 -404 -222 -430 0 -8 -7 -24 -15 -34 -8 -11 -15 -26 -15 -34 0 -8 -6 -28 -13 -45 -33 -77 -49 -144 -83 -334 l-4 -23 -19 0 -19 0 -27 53 c-41 78 -188 298 -274 410 -42 55 -83 110 -92 123 -9 13 -45 56 -80 95 -35 39 -73 81 -84 94 -171 194 -368 392 -489 490 -28 22 -57 47 -66 55 -49 46 -297 238 -351 272 -14 9 -33 23 -41 31 -17 18 -198 139 -276 186 -245 147 -489 281 -513 281 -8 0 -27 -12 -43 -26 l-28 -27 6 -29 c6 -30 41 -67 63 -68 7 0 29 -9 50 -19 21 -11 63 -31 94 -45 53 -24 87 -51 78 -60 -2 -2 -47 -9 -99 -15 -101 -13 -276 -51 -375 -83 -97 -31 -127 -74 -86 -127 l18 -24 57 6 c32 3 63 10 70 16 6 5 30 14 51 20 22 6 81 21 130 35 50 14 135 30 191 37 99 12 136 10 261 -10 l63 -9 72 -47 c132 -83 283 -190 283 -200 l0 -10 -235 -1 -235 -2 -100 -21 c-231 -50 -256 -57 -440 -119 l-120 -41 -17 -21 c-22 -27 -23 -59 -2 -88 l15 -22 37 0 c20 0 48 6 62 13 14 7 54 23 90 36 36 13 74 27 85 32 11 5 38 13 60 18 22 5 83 21 135 34 52 14 136 31 185 38 l90 14 195 0 195 0 60 -13 c52 -12 83 -22 145 -46 79 -31 181 -113 384 -308 l69 -67 -18 -7 c-10 -4 -36 -2 -59 5 -23 7 -59 16 -81 21 -22 4 -83 18 -135 29 -52 12 -156 26 -230 32 l-135 11 -202 -6 -202 -6 -133 -20 c-158 -24 -257 -43 -318 -62 l-45 -14 -14 -26 -15 -26 12 -26 c6 -15 23 -32 38 -38 l25 -12 97 23 c53 13 113 27 132 32 80 19 297 40 475 46 l190 6 90 -12 c50 -6 126 -16 170 -21 168 -20 352 -73 521 -150 l42 -19 65 -76 c80 -94 122 -153 114 -162 -4 -3 -32 -1 -64 5 -32 6 -89 17 -128 23 l-70 13 -195 0 -195 1 -115 -13 c-144 -16 -290 -40 -355 -57 -27 -7 -84 -20 -125 -30 -115 -27 -166 -45 -189 -66 l-21 -20 0 -29 0 -29 22 -15 c29 -21 56 -20 125 3 32 10 94 26 138 36 44 9 109 23 145 30 93 20 194 34 338 46 l127 11 195 -6 195 -6 85 -16 c86 -16 183 -41 210 -53 8 -4 42 -48 76 -97 33 -49 81 -119 106 -156 60 -86 66 -121 23 -132 l-24 -6 -88 34 c-522 202 -1308 246 -1973 110 -150 -31 -439 -116 -580 -171 -36 -14 -105 -41 -155 -60 -105 -41 -379 -174 -431 -209 -19 -13 -37 -24 -40 -24 -3 0 -53 -29 -112 -65 l-108 -65 -17 -30 -18 -30 12 -22 c16 -31 28 -38 65 -38 l31 0 64 48 c124 92 152 94 92 7 -81 -120 -173 -295 -173 -330 0 -72 99 -88 132 -22 9 18 37 76 63 130 89 187 204 336 339 441 l81 62 145 62 c124 53 200 75 200 57 0 -2 -26 -30 -58 -62 -238 -240 -373 -537 -427 -943 -8 -58 -14 -141 -14 -185 l-1 -80 13 -25 12 -25 39 -3 38 -3 19 17 19 17 0 136 c0 151 6 191 60 426 31 134 160 389 256 505 151 183 404 356 549 375 28 4 75 14 105 21 59 15 140 19 140 6 0 -4 -25 -27 -55 -51 -75 -60 -200 -191 -262 -276 -28 -38 -62 -83 -76 -100 -13 -16 -41 -59 -63 -95 -21 -36 -41 -67 -44 -70 -31 -31 -235 -455 -310 -645 -18 -44 -40 -101 -51 -127 -24 -60 -24 -89 1 -116 l21 -22 29 0 29 0 20 26 c12 15 21 33 21 40 0 8 4 22 9 32 6 9 19 44 30 77 122 371 405 855 640 1098 110 113 282 237 329 237 10 0 23 5 30 12 l12 12 123 7 c67 4 148 5 180 2 l57 -6 0 -13 c0 -8 -4 -14 -9 -14 -19 0 -173 -122 -237 -187 -115 -118 -248 -310 -321 -463 -68 -144 -108 -237 -127 -295 -9 -27 -20 -59 -25 -70 -18 -42 -42 -116 -95 -304 -20 -67 -20 -121 -2 -146 l13 -18 31 1 c17 0 40 5 51 11 l19 11 7 32 c20 103 57 248 74 293 5 11 19 53 32 93 13 41 27 76 31 79 5 2 8 11 8 19 0 37 145 328 226 450 127 194 324 390 435 433 13 5 50 21 81 35 l57 26 63 -1 c65 -1 129 -18 135 -36 2 -6 -17 -23 -42 -37 -200 -118 -515 -616 -515 -816 l0 -33 17 -19 c9 -10 28 -18 43 -18 l27 0 17 19 c10 11 21 34 26 53 5 18 18 58 30 88 12 30 25 66 29 80 7 22 78 163 121 240 85 152 260 315 400 370 l55 22 65 -5 c36 -3 102 -17 148 -32 l82 -26 0 -13 c0 -7 -13 -25 -30 -41 -16 -16 -30 -34 -30 -41 0 -10 -41 -38 -115 -79 -305 -165 -682 -588 -862 -965 -23 -50 -78 -171 -95 -210 -5 -14 -16 -38 -23 -55 -7 -16 -20 -50 -30 -75 -9 -25 -22 -56 -27 -70 -6 -14 -14 -38 -19 -55 -4 -16 -15 -49 -23 -72 -45 -123 -119 -434 -162 -683 -35 -202 -69 -561 -80 -845 l-7 -160 28 -27 c34 -35 65 -35 95 -3 l23 24 -2 190 c-3 280 5 303 66 191 55 -98 190 -273 305 -393 l103 -107 36 0 c19 0 44 6 54 14 l18 13 0 32 0 32 -119 122 c-66 67 -136 142 -154 167 -19 25 -41 51 -49 59 -15 16 -131 190 -131 197 0 2 -12 28 -26 57 -55 111 -69 212 -47 337 7 36 19 110 28 165 22 136 48 240 59 238 5 -1 17 -28 28 -60 46 -143 125 -310 201 -430 15 -24 27 -45 27 -48 0 -3 41 -61 92 -128 169 -224 460 -492 643 -593 11 -6 35 -19 52 -29 l33 -19 27 10 c15 5 34 21 42 36 l15 26 -14 27 -14 26 -85 51 c-410 246 -797 740 -926 1183 -10 33 -21 70 -26 83 -5 12 -13 51 -19 87 l-10 64 21 68 c11 37 27 83 35 101 8 18 14 39 14 46 0 20 56 142 69 150 l10 7 5 -23 c36 -197 122 -466 173 -543 7 -11 13 -25 13 -32 0 -21 150 -264 208 -338 122 -153 334 -347 468 -428 l62 -37 35 0 35 0 16 25 c33 50 13 73 -146 177 l-107 69 -105 104 c-170 168 -406 522 -406 608 0 7 -4 17 -8 23 -22 25 -92 245 -112 349 -4 22 -13 63 -18 92 -6 28 -12 83 -14 122 l-2 70 38 73 c60 116 83 153 98 156 l13 3 44 -128 c55 -164 114 -294 190 -423 125 -210 297 -391 490 -512 82 -52 99 -56 136 -32 l25 16 0 38 0 39 -29 20 c-16 12 -33 21 -38 21 -9 0 -109 66 -129 84 -6 6 -33 29 -59 51 -189 158 -369 447 -490 785 -7 19 -18 51 -25 70 -7 19 -15 58 -17 85 l-4 50 48 55 c50 58 232 241 273 275 66 55 169 125 184 125 l16 0 0 -27 c0 -36 -8 -46 -49 -63 -59 -24 -183 -131 -202 -174 -5 -12 -13 -28 -18 -36 -29 -52 -40 -83 -50 -144 l-10 -70 10 -74 10 -75 30 -63 c38 -80 101 -150 184 -204 l66 -43 77 -18 c95 -23 134 -23 201 -3 l53 16 9 -9 c8 -8 19 -71 55 -303 8 -52 19 -115 26 -140 6 -25 14 -72 18 -105 4 -33 10 -67 14 -75 3 -8 10 -46 15 -85 9 -69 26 -166 56 -318 8 -42 21 -110 29 -150 7 -39 18 -92 24 -117 6 -25 18 -81 26 -125 9 -44 23 -109 30 -145 8 -36 22 -101 31 -145 9 -44 21 -98 26 -119 6 -21 15 -60 19 -85 11 -55 31 -137 60 -246 29 -105 42 -165 44 -193 l1 -23 -1875 0 c-1031 1 -1880 1 -1887 1 -9 0 -320 454 -523 765 -19 30 -71 107 -115 172 -44 65 -82 123 -84 128 -2 6 -16 26 -31 45 -14 19 -42 60 -61 91 -19 31 -45 69 -57 85 -20 25 -140 203 -182 269 -22 34 -153 228 -163 240 -8 9 -75 110 -107 160 -24 38 -341 507 -435 645 -47 69 -174 257 -281 418 l-196 292 -678 0 c-373 0 -686 -3 -695 -6 -13 -6 -115 -148 -115 -162 0 -2 -20 -34 -44 -71 -121 -185 -161 -247 -166 -256 -6 -13 -39 -63 -158 -245 -52 -80 -114 -174 -137 -210 -23 -36 -67 -103 -97 -150 -30 -47 -76 -119 -103 -160 -63 -98 -119 -185 -191 -295 -32 -49 -61 -94 -64 -100 -3 -5 -18 -30 -34 -55 -16 -25 -63 -97 -104 -160 -41 -63 -87 -134 -103 -157 -16 -23 -29 -43 -29 -46 0 -3 -34 -55 -75 -116 -41 -62 -91 -140 -112 -174 -20 -34 -41 -66 -45 -72 -10 -11 -82 -122 -136 -209 -20 -32 -44 -68 -52 -80 -8 -13 -30 -47 -48 -77 -18 -30 -60 -94 -92 -144 -33 -49 -78 -121 -102 -160 -23 -38 -46 -71 -50 -73 -5 -2 -8 -8 -8 -12 0 -13 -60 -103 -78 -118 l-16 -12 -127 0 c-70 0 -133 2 -141 5 l-13 5 2 2295 c1 1262 5 2299 8 2305 l6 9 187 -6 188 -6 22 28 c26 33 27 52 7 91 l-15 29 0 86 0 86 30 60 30 60 49 46 49 47 54 21 53 22 122 -1 121 -1 15 22 c8 12 16 45 19 72 l5 50 31 65 30 65 49 51 c274 288 746 117 780 -282 l6 -71 -18 -57 -18 -57 13 -23 c7 -13 24 -29 37 -35 l25 -12 44 17 43 16 88 -4 88 -4 53 -29 c106 -58 171 -153 192 -280 7 -38 14 -79 16 -91 2 -11 15 -26 29 -32 l26 -12 282 0 282 0 21 18 c45 36 37 90 -17 117 l-31 17 -227 -7 -226 -8 -11 14 c-6 8 -16 39 -24 69 -26 110 -84 192 -190 274 l-55 43 -62 21 -62 21 -84 3 -84 2 -7 104 c-4 57 -11 111 -15 120 -5 9 -17 38 -26 65 -36 102 -146 229 -245 283 -19 10 -41 23 -48 28 -7 5 -39 18 -70 29 l-57 19 -115 1 -115 1 -50 -17 c-80 -28 -115 -47 -187 -99 l-68 -50 -47 -61 -47 -61 -33 -81 -32 -80 -83 -7 c-95 -7 -130 -17 -207 -55 l-55 -28 -61 -60 -61 -60 -31 -65 c-17 -36 -37 -93 -43 -128 l-11 -62 7 -59 6 -59 -38 -5 c-22 -4 -78 -6 -126 -6 l-87 0 -11 15 -12 14 7 142 c7 154 16 251 40 423 55 407 117 696 226 1060 22 74 102 313 114 340 7 17 20 53 30 80 19 55 39 103 60 150 8 17 24 54 35 84 54 139 253 539 339 681 11 19 25 44 30 56 23 51 192 310 315 484 264 371 665 820 975 1091 40 35 81 71 90 79 9 8 38 33 66 55 27 22 56 47 65 55 9 8 31 26 49 40 19 14 50 39 70 56 171 145 583 415 896 586 50 28 442 222 480 238 11 5 43 18 70 30 28 12 59 25 70 30 37 17 100 42 125 50 14 5 84 29 155 55 72 26 155 55 185 65 113 36 166 53 195 61 17 4 55 16 85 25 30 9 82 23 115 31 204 50 267 63 475 98 80 14 165 30 190 35 44 10 108 18 345 40 66 6 149 15 185 20 90 11 818 5 970 -8z m4875 -6566 l160 -12 45 -23 c227 -118 513 -382 665 -616 l56 -85 32 0 c44 0 57 11 63 51 l5 34 -40 64 c-85 137 -284 353 -405 442 -143 104 -128 116 84 64 30 -7 89 -21 130 -30 93 -20 178 -42 250 -65 l55 -17 -2 -2114 c-2 -1163 -3 -2116 -3 -2119 0 -3 -542 -5 -1205 -5 l-1205 0 -51 160 c-28 88 -55 169 -59 180 -4 11 -18 54 -30 95 -45 158 -53 186 -66 225 -7 22 -26 85 -43 140 -16 55 -41 136 -54 180 -14 44 -35 116 -47 160 -12 44 -28 100 -35 125 -7 25 -20 72 -29 105 -10 33 -24 82 -32 109 -7 26 -14 56 -14 65 0 9 -4 21 -9 27 -5 5 -14 32 -20 59 -5 28 -17 75 -26 105 -10 30 -23 79 -31 107 -8 29 -21 79 -30 110 -9 32 -22 83 -29 113 -8 30 -28 109 -46 175 -17 66 -37 145 -45 175 -7 30 -23 92 -35 137 -25 91 -24 98 15 83 15 -5 69 -10 119 -10 l92 0 45 18 c278 109 411 430 278 672 -66 120 -150 196 -269 241 l-54 21 -101 2 -102 1 -56 58 c-31 33 -56 66 -56 74 l0 15 23 -5 c12 -3 49 -8 82 -12 171 -18 367 -71 552 -149 l41 -17 10 -27 c15 -39 38 -168 58 -316 l17 -129 -6 -161 c-3 -89 -11 -188 -17 -221 -20 -103 -53 -230 -62 -239 -4 -6 -8 -16 -8 -23 0 -23 -74 -168 -112 -222 -10 -13 -18 -39 -18 -57 l0 -33 22 -21 22 -20 27 0 28 0 19 24 c10 13 34 55 53 93 19 37 37 70 42 71 4 2 7 8 7 14 0 5 6 24 14 41 35 81 65 186 91 323 l15 81 0 203 0 202 -16 107 c-8 58 -22 131 -29 161 l-14 55 9 8 8 9 55 -31 c30 -17 83 -50 118 -73 l63 -43 21 -40 c18 -35 31 -70 74 -200 11 -34 34 -125 50 -200 14 -64 30 -191 42 -329 l9 -110 -10 -100 c-10 -93 -25 -191 -48 -306 -9 -46 -53 -181 -77 -235 -34 -77 -67 -144 -95 -194 -36 -64 -38 -96 -8 -128 l21 -23 27 0 c15 0 34 8 42 18 26 30 148 280 148 304 0 5 6 24 14 41 26 57 69 225 91 355 l15 92 0 179 0 178 -19 125 c-11 69 -25 145 -31 169 -21 81 -42 154 -56 194 l-14 39 10 10 9 9 78 -69 c42 -38 110 -100 150 -138 l73 -69 6 -26 c4 -14 12 -46 19 -71 29 -104 45 -193 56 -321 l12 -135 -6 -140 c-6 -149 -20 -278 -38 -359 -37 -162 -91 -338 -133 -430 -13 -27 -27 -61 -31 -75 -4 -14 -19 -42 -31 -62 -13 -21 -24 -41 -24 -44 0 -4 -14 -29 -31 -57 l-31 -51 -1 -34 -1 -34 19 -15 20 -14 40 3 39 3 43 80 c23 44 61 123 83 175 23 52 45 103 51 112 5 10 9 23 9 29 0 6 6 25 14 42 12 30 48 143 66 212 21 77 41 179 55 274 l15 105 0 186 0 187 -14 84 c-21 120 -23 169 -8 169 10 0 113 -122 202 -240 35 -47 70 -91 78 -99 33 -34 63 -95 82 -167 l20 -78 0 -117 0 -116 -20 -119 c-11 -66 -24 -135 -29 -154 -27 -101 -44 -161 -63 -222 l-21 -67 11 -26 c6 -14 23 -30 37 -37 l25 -11 25 11 26 12 18 42 c10 24 28 84 40 133 12 50 26 106 31 125 19 76 40 250 40 337 l0 92 11 6 11 7 16 -23 c21 -29 61 -96 103 -174 17 -33 45 -85 62 -115 16 -30 36 -63 45 -72 l15 -18 30 0 31 0 23 22 c13 12 23 30 23 41 0 27 -105 200 -308 512 -65 99 -277 386 -330 447 -141 162 -247 276 -377 404 l-154 151 -173 130 c-95 71 -180 133 -188 136 -8 4 -28 16 -45 27 -109 70 -415 220 -490 240 -16 5 -61 20 -100 33 -89 31 -168 52 -275 71 l-85 16 -148 1 c-208 2 -208 16 -4 119 78 39 149 75 157 80 57 32 149 70 168 70 21 0 181 -79 212 -104 8 -7 22 -16 30 -19 35 -16 240 -172 348 -266 l94 -81 24 0 c48 0 75 46 53 92 -19 40 -364 317 -429 345 -8 3 -22 12 -30 18 -8 7 -40 26 -70 43 -60 33 -69 51 -30 63 14 4 50 17 80 30 30 12 79 24 109 27 l55 4 55 -17 c114 -35 148 -47 221 -77 297 -119 559 -309 790 -573 68 -78 171 -232 230 -344 l45 -85 28 -16 27 -15 28 15 c15 9 33 28 40 43 l13 26 -21 38 c-47 87 -138 232 -173 278 -4 6 -31 42 -59 80 -129 176 -419 431 -603 531 -119 65 -228 113 -357 159 -50 17 -68 33 -46 39 72 20 331 66 370 66 19 0 49 5 67 11 l32 11 32 -12 c99 -39 271 -133 383 -210 123 -84 155 -109 252 -193 211 -183 326 -327 438 -547 78 -154 113 -181 164 -130 l20 20 0 28 c-1 131 -292 525 -557 750 -99 85 -350 251 -415 275 -18 6 -24 28 -11 40 10 11 190 7 368 -7z m-2300 -778 l57 -22 54 -48 53 -49 31 -67 32 -66 -4 -90 -3 -91 -28 -55 c-53 -102 -134 -167 -246 -196 l-70 -18 -48 12 c-231 61 -352 242 -298 447 l14 56 37 50 c46 63 106 112 169 138 l50 20 72 0 71 1 57 -22z m505 -214 c205 -100 279 -311 179 -505 -72 -137 -272 -220 -415 -172 -58 19 -150 78 -164 104 l-10 18 37 28 c21 15 63 53 93 83 l55 55 35 70 35 70 -1 139 -2 139 62 -6 c33 -3 77 -14 96 -23z m-6375 -279 c11 -21 56 -89 146 -218 30 -42 64 -94 75 -113 l22 -37 -17 -37 c-9 -21 -30 -59 -46 -84 l-28 -45 -29 -6 c-15 -4 -41 -4 -58 0 l-30 7 -82 101 c-84 105 -108 125 -170 146 l-36 12 -48 -12 c-27 -6 -60 -21 -73 -33 -28 -25 -101 -122 -101 -134 0 -18 -77 -91 -104 -98 l-28 -7 -29 14 -30 14 -72 95 -72 95 -44 24 -44 24 -66 0 -67 0 -40 -26 c-22 -14 -78 -68 -123 -120 -45 -53 -89 -98 -98 -101 -43 -17 -98 1 -113 37 -6 12 -14 29 -19 37 -6 8 -22 41 -36 73 l-26 58 73 112 c127 196 138 212 150 230 l13 17 619 -2 620 -3 11 -20z m5300 -25 c7 -14 21 -43 31 -64 59 -124 245 -236 392 -236 l55 0 -7 -52 c-10 -71 -30 -110 -92 -177 l-52 -57 -49 -21 c-26 -11 -77 -26 -113 -32 l-65 -11 -50 14 c-27 7 -70 23 -95 33 l-45 20 -42 46 c-23 25 -54 69 -69 99 l-27 53 -1 95 0 95 22 45 c38 76 55 99 106 141 l49 40 19 -3 c11 -2 25 -14 33 -28z m638 -394 c23 -23 31 -50 67 -231 4 -22 15 -69 24 -105 8 -36 20 -85 25 -110 12 -48 29 -111 57 -203 l18 -57 -14 -15 c-8 -8 -59 -37 -112 -64 -53 -27 -118 -61 -143 -76 -50 -27 -65 -26 -65 7 0 11 -7 57 -15 102 -8 44 -22 126 -31 181 -8 55 -22 133 -30 173 -20 102 -20 101 44 168 31 34 64 76 73 95 36 73 49 108 49 128 l0 21 19 0 c11 0 26 -6 34 -14z m-6845 -19 c8 -6 48 -53 88 -103 l72 -91 49 -24 48 -24 50 0 50 0 55 28 55 28 43 58 c23 32 42 62 42 66 0 4 14 25 31 46 l31 39 33 0 34 0 58 -72 c31 -40 78 -94 105 -120 l47 -47 38 -10 c112 -32 218 17 271 123 l23 46 14 -7 c7 -5 73 -98 146 -208 73 -110 148 -224 168 -253 20 -30 43 -64 51 -77 8 -13 110 -164 226 -336 116 -173 276 -411 355 -529 79 -118 146 -217 149 -220 5 -5 26 -37 137 -205 85 -129 304 -453 386 -570 133 -190 156 -225 159 -242 l3 -18 -368 0 -368 0 -13 15 c-7 8 -38 78 -70 155 -31 77 -61 149 -66 160 -5 11 -14 32 -20 48 l-10 27 -33 16 -34 16 -27 -17 -26 -17 -1 -22 c-3 -51 1 -60 103 -274 22 -46 38 -88 36 -94 l-4 -11 -867 -1 -867 -1 -1 15 c0 8 0 184 1 392 l1 376 -23 16 c-12 9 -34 16 -49 16 l-26 0 -19 -21 -19 -21 0 -385 0 -384 -878 -1 c-482 -1 -880 1 -883 5 -3 3 41 101 99 219 58 117 124 254 147 303 81 173 123 261 161 338 22 43 39 90 39 106 l0 28 -17 15 c-10 9 -28 19 -40 22 l-22 7 -22 -11 -21 -12 -33 -71 c-18 -40 -49 -108 -70 -152 -20 -44 -49 -105 -62 -135 -14 -30 -50 -107 -80 -170 -56 -120 -105 -224 -128 -275 -74 -162 -96 -204 -107 -211 -7 -4 -171 -9 -365 -10 l-353 -3 0 17 c0 10 35 68 78 130 42 62 118 176 167 253 50 76 127 197 173 267 45 70 111 171 145 225 34 55 92 145 128 200 111 169 203 311 214 329 27 46 103 164 165 258 59 90 98 150 190 296 24 39 129 201 199 309 36 55 108 169 161 254 52 85 99 155 104 155 5 1 26 -30 46 -67 63 -118 147 -158 263 -126 l39 10 51 52 c29 29 71 74 94 101 24 27 55 58 70 68 l28 19 29 -6 c16 -3 36 -11 44 -18z m7069 -839 c6 -7 22 -62 37 -123 15 -60 34 -135 42 -165 9 -30 22 -77 30 -105 13 -48 28 -100 61 -210 9 -27 16 -60 17 -73 l1 -23 -25 -13 c-14 -8 -70 -36 -125 -64 -55 -27 -122 -61 -149 -76 -27 -14 -57 -26 -67 -26 l-18 0 -7 22 c-4 12 -10 47 -14 78 -9 63 -24 145 -45 245 -8 39 -21 106 -30 150 -8 44 -21 100 -27 125 -6 25 -12 58 -12 73 l-1 29 95 51 c52 28 122 65 155 83 71 38 70 38 82 22z m247 -868 c9 -22 16 -49 16 -60 0 -10 4 -29 9 -42 6 -13 19 -57 31 -98 11 -41 41 -137 65 -212 25 -75 45 -145 45 -157 l0 -20 -97 -49 c-103 -51 -215 -111 -267 -143 -17 -10 -41 -19 -53 -19 l-23 0 -4 23 c-8 40 -38 191 -53 262 -7 39 -18 84 -23 100 -5 17 -12 48 -15 70 -4 22 -13 62 -21 89 -8 27 -14 64 -14 82 l0 32 68 32 c37 17 119 57 182 89 139 71 134 71 154 21z m231 -765 c7 -22 23 -74 35 -115 12 -41 42 -136 66 -210 25 -74 52 -157 60 -185 9 -27 22 -64 30 -81 7 -16 16 -48 19 -70 l7 -39 -144 -70 c-78 -38 -178 -89 -220 -112 -43 -23 -88 -45 -101 -48 l-24 -6 -11 28 c-7 15 -16 48 -21 73 -19 88 -41 177 -77 315 -20 77 -40 156 -44 175 -5 19 -15 60 -24 90 -9 30 -13 63 -10 72 l5 17 167 84 c92 46 183 94 202 106 19 12 43 20 54 19 l18 -3 13 -40z m-558 -383 c6 -4 19 -39 28 -77 9 -39 22 -92 30 -120 7 -27 23 -90 35 -140 22 -92 25 -103 80 -310 18 -66 40 -154 51 -195 11 -41 28 -106 40 -145 11 -38 27 -95 35 -125 8 -30 21 -75 28 -100 8 -25 21 -72 30 -105 9 -33 23 -80 30 -105 8 -25 21 -72 30 -105 19 -66 42 -148 61 -210 15 -48 26 -85 55 -185 12 -41 28 -93 35 -115 7 -22 34 -107 60 -190 26 -82 52 -159 56 -170 5 -11 20 -54 33 -95 13 -41 29 -86 34 -100 5 -14 15 -43 22 -64 l13 -40 -23 -18 c-12 -10 -31 -18 -43 -18 -39 0 -404 -118 -514 -166 -17 -8 -36 -14 -42 -14 -6 0 -19 -4 -29 -10 -9 -5 -55 -25 -102 -44 -47 -19 -116 -48 -155 -66 -38 -18 -90 -41 -115 -52 -149 -68 -401 -194 -495 -248 -60 -35 -125 -71 -143 -81 -18 -9 -38 -22 -45 -27 -7 -5 -34 -22 -62 -37 -27 -15 -92 -53 -143 -84 -51 -31 -101 -60 -110 -66 -10 -5 -33 -21 -52 -35 -19 -14 -42 -29 -52 -35 -39 -22 -321 -217 -355 -245 -6 -5 -69 -53 -139 -106 -70 -53 -134 -104 -143 -113 -9 -9 -37 -32 -61 -51 -24 -19 -80 -66 -125 -105 -44 -38 -93 -81 -110 -95 -60 -51 -174 -158 -313 -297 l-143 -143 -265 0 -265 0 -20 -10 -19 -11 0 -38 0 -39 25 -16 24 -16 186 0 185 0 0 -15 c0 -8 -4 -15 -10 -15 -5 0 -53 -37 -107 -83 -87 -74 -282 -225 -325 -252 -9 -5 -49 -34 -89 -62 -41 -29 -82 -59 -93 -65 -10 -7 -35 -24 -55 -38 -20 -14 -60 -41 -90 -59 l-54 -33 -434 3 -435 3 -19 -24 c-25 -34 -24 -62 5 -89 l25 -23 298 2 c334 3 323 3 323 -9 0 -16 -384 -195 -510 -238 -25 -8 -58 -21 -75 -29 -50 -22 -372 -131 -475 -160 -30 -9 -68 -20 -85 -26 -28 -9 -138 -37 -233 -58 -55 -13 -119 -13 -127 0 -3 6 -14 10 -24 10 -16 0 -38 8 -136 50 -11 5 -74 29 -140 55 -66 25 -133 52 -150 60 -16 7 -75 34 -130 60 -139 64 -296 142 -390 194 -44 25 -96 53 -115 63 -19 10 -42 23 -50 28 -8 5 -58 35 -110 66 -136 80 -400 256 -500 333 -47 35 -103 78 -125 95 -22 17 -70 56 -106 86 -37 30 -82 66 -100 80 -18 14 -40 32 -49 40 -9 8 -58 53 -110 100 -217 193 -655 650 -647 673 l4 12 69 -1 c38 0 225 -2 416 -3 l347 -4 26 17 c13 9 27 27 31 41 l6 25 -16 25 c-25 38 -36 38 -534 33 l-464 -6 -15 17 c-23 27 -97 124 -123 161 -13 19 -27 37 -30 40 -3 3 -28 39 -56 80 -28 41 -72 106 -97 143 -26 38 -47 70 -47 72 0 3 -13 24 -29 47 -50 74 -121 187 -121 193 0 3 -12 24 -27 48 -74 114 -86 151 -54 162 11 3 43 28 72 55 64 60 55 60 116 5 66 -59 163 -110 247 -129 l67 -16 93 0 92 0 55 16 c30 9 83 31 119 49 l65 33 50 51 c59 60 72 62 105 16 40 -54 112 -103 198 -135 l80 -29 341 -2 342 -1 13 11 c8 7 17 23 20 36 l6 25 -15 30 -16 30 -22 1 c-12 1 -146 1 -297 -1 l-275 -2 -78 16 c-153 32 -236 108 -271 248 l-6 28 -25 6 c-14 3 -36 3 -50 0 l-25 -6 -32 -66 -32 -66 -54 -49 c-152 -139 -418 -143 -597 -9 l-50 37 -23 47 c-31 62 -70 106 -92 106 -26 0 -70 -50 -70 -80 -1 -39 -42 -102 -89 -135 l-42 -30 -17 23 c-9 12 -35 62 -56 110 -22 48 -53 115 -68 149 -15 34 -28 64 -28 66 0 3 -14 36 -31 74 -45 101 -46 103 -69 163 -12 30 -26 64 -31 75 -16 38 -117 336 -148 440 -26 85 -70 250 -91 335 -5 19 -16 64 -25 100 -9 36 -21 88 -25 115 -5 28 -15 84 -23 125 -24 116 -34 184 -52 325 -9 72 -20 166 -26 210 -9 78 -39 612 -39 707 l0 48 4913 3 c2701 1 4914 3 4917 4 3 2 10 -1 17 -5z m3186 -11 l9 -9 -12 -258 c-14 -319 -24 -466 -39 -564 -13 -90 -28 -205 -42 -319 l-9 -85 -13 -8 c-16 -10 -295 -10 -380 1 l-69 9 -45 24 c-25 13 -59 40 -76 60 l-30 37 -8 52 c-4 28 -15 62 -24 75 l-15 24 -31 0 -30 0 -23 -25 c-13 -14 -27 -40 -30 -58 -14 -68 -100 -151 -192 -183 l-49 -18 -212 3 -213 2 -25 -27 c-31 -34 -32 -64 -1 -93 l24 -23 244 4 243 4 68 34 c38 18 92 55 120 82 63 58 53 58 109 0 l47 -48 68 -35 68 -34 211 2 c115 1 216 -2 224 -7 l13 -8 -11 -29 c-5 -15 -18 -64 -27 -108 -19 -87 -51 -206 -66 -243 -5 -13 -9 -30 -9 -40 0 -19 -40 -149 -111 -362 -70 -211 -79 -234 -94 -249 l-14 -14 -138 -3 c-287 -6 -473 -16 -638 -36 -93 -11 -186 -21 -204 -22 l-35 -1 -12 25 c-7 14 -19 43 -27 65 -19 50 -46 121 -62 160 -7 17 -47 125 -90 240 -43 116 -84 224 -91 242 -8 17 -14 38 -14 46 0 9 -4 18 -9 22 -5 3 -12 19 -16 36 -4 17 -13 42 -21 57 -8 15 -14 35 -14 44 0 9 -4 19 -9 23 -5 3 -13 20 -17 38 -3 17 -12 45 -19 62 -7 16 -21 50 -30 75 -10 25 -21 54 -26 65 -5 11 -25 70 -45 130 -19 61 -42 124 -50 142 -8 17 -14 37 -14 45 0 8 -4 18 -8 23 -5 6 -18 44 -31 85 -13 41 -27 84 -32 95 -5 11 -20 54 -34 95 -13 41 -47 140 -75 220 -29 80 -55 159 -60 175 -9 31 -24 76 -46 135 -34 91 -47 138 -42 151 l5 14 1174 -3 1173 -2 9 -9z m-2349 -465 c9 -19 16 -39 16 -45 0 -6 36 -116 79 -244 103 -304 99 -292 142 -394 23 -56 21 -80 -8 -90 -17 -6 -167 -66 -208 -84 -11 -4 -48 -20 -83 -34 -35 -14 -96 -41 -137 -60 -79 -37 -104 -42 -109 -22 -2 6 -11 37 -19 67 -9 30 -23 80 -31 110 -7 30 -21 80 -29 110 -8 30 -22 80 -30 110 -8 30 -22 82 -31 115 -9 33 -23 80 -30 105 -8 25 -19 64 -26 86 -18 61 -25 55 230 184 270 136 253 130 274 86z m323 -921 c8 -22 18 -53 22 -70 5 -16 25 -73 44 -125 20 -52 39 -107 43 -123 3 -15 10 -30 15 -33 5 -3 9 -12 9 -20 0 -12 54 -159 80 -219 5 -11 19 -45 30 -75 12 -30 28 -67 37 -83 8 -15 12 -35 9 -45 l-6 -17 -133 -49 c-72 -26 -145 -54 -162 -61 -16 -7 -70 -30 -120 -50 -49 -20 -103 -43 -120 -51 -16 -7 -41 -15 -54 -16 l-23 -3 -20 70 c-11 39 -23 77 -28 85 -4 9 -11 31 -15 50 -4 19 -17 67 -30 105 -13 39 -33 104 -45 145 -20 66 -43 140 -95 300 -28 86 -25 93 70 129 33 13 76 30 95 39 19 8 49 21 65 28 17 6 46 19 65 27 19 9 67 30 105 47 39 17 84 37 100 45 40 18 45 16 62 -30z m381 -1013 c48 -125 57 -148 90 -232 72 -180 93 -233 146 -358 56 -134 60 -152 27 -152 -9 0 -21 -4 -27 -8 -5 -4 -36 -18 -69 -31 -112 -43 -280 -112 -343 -142 -35 -16 -66 -29 -69 -29 -4 0 -25 -9 -47 -19 -23 -11 -51 -22 -62 -25 l-22 -7 -41 123 c-22 68 -61 182 -87 253 -25 72 -52 148 -59 170 -8 22 -23 65 -35 95 -12 30 -24 64 -27 75 -3 11 -12 35 -20 53 -8 18 -13 44 -11 59 l3 26 95 35 c52 19 109 40 125 47 17 7 66 28 110 45 44 18 94 38 110 45 17 8 46 20 65 28 19 7 46 19 60 25 14 6 32 11 40 11 l15 0 33 -87z m1142 -167 l12 -15 -36 -77 c-21 -43 -43 -91 -51 -108 -35 -75 -165 -336 -194 -390 -19 -33 -49 -89 -69 -125 -19 -36 -46 -82 -59 -102 -13 -21 -23 -40 -23 -42 0 -3 -13 -24 -29 -48 -16 -24 -32 -53 -35 -65 l-7 -23 -20 0 -20 0 -5 18 c-3 9 -11 31 -19 47 -7 17 -34 82 -60 145 -26 63 -53 129 -60 145 -7 17 -18 41 -23 55 -6 14 -20 46 -31 72 -12 26 -21 51 -21 57 0 5 -6 22 -14 38 -8 15 -19 39 -25 53 -5 14 -35 84 -65 157 -31 72 -53 138 -50 146 l5 15 57 6 c127 13 468 37 632 44 96 5 180 9 186 10 6 1 17 -5 24 -13z m-1853 -267 c5 -7 40 -105 77 -218 37 -113 74 -219 82 -237 8 -17 14 -37 14 -45 0 -8 4 -18 9 -24 5 -5 14 -25 19 -44 6 -19 20 -60 32 -90 12 -30 32 -87 45 -125 13 -39 28 -81 33 -95 6 -14 23 -59 38 -100 15 -41 35 -94 45 -117 11 -23 19 -46 19 -51 0 -8 47 -134 70 -187 5 -11 19 -45 31 -75 12 -30 35 -83 50 -118 16 -34 29 -66 29 -70 0 -5 7 -24 16 -41 l16 -33 -78 -80 c-206 -209 -337 -330 -514 -477 -69 -57 -136 -113 -150 -124 -197 -165 -656 -470 -916 -608 -179 -96 -449 -229 -464 -229 -9 0 -20 -4 -25 -9 -6 -5 -66 -32 -135 -61 -69 -29 -134 -56 -145 -61 -11 -4 -51 -19 -90 -33 -38 -13 -86 -30 -105 -37 -19 -6 -44 -15 -55 -20 -37 -13 -139 -47 -200 -64 -33 -10 -71 -21 -85 -26 -26 -8 -148 -41 -235 -64 -61 -15 -163 -38 -270 -60 -44 -8 -110 -22 -146 -30 -37 -8 -77 -15 -90 -15 -13 0 -57 -7 -99 -14 -116 -23 -222 -36 -375 -46 -77 -6 -187 -14 -245 -20 -132 -12 -595 -12 -760 0 -191 13 -359 29 -425 40 -33 5 -112 17 -175 26 -63 8 -144 22 -180 29 -36 8 -87 17 -115 20 -27 4 -63 11 -80 15 -33 10 -119 28 -180 40 -49 9 -237 60 -248 67 l-9 5 9 8 c4 5 62 23 128 40 66 17 138 37 160 44 22 8 85 28 140 46 97 30 147 48 212 76 17 8 38 14 46 14 9 0 18 4 21 9 3 5 18 12 32 15 15 4 54 20 88 36 33 16 88 41 121 55 98 44 312 154 392 201 41 24 77 44 79 44 12 0 314 189 374 235 19 14 85 63 146 108 189 140 233 176 379 311 61 57 132 122 160 147 27 24 99 94 160 154 225 226 609 557 816 705 19 13 39 28 44 33 11 9 170 123 205 147 12 8 42 30 66 48 23 17 46 32 49 32 3 0 29 17 58 39 29 21 90 61 137 90 47 28 117 71 155 96 39 24 73 44 78 45 4 0 25 11 47 25 94 59 490 265 605 314 28 12 57 26 66 30 24 14 265 115 344 146 39 14 84 33 100 40 54 25 507 182 531 184 6 1 16 -5 21 -11z m1060 -430 c6 -7 20 -38 31 -68 28 -76 86 -211 129 -298 l35 -73 -44 -67 c-62 -93 -283 -384 -351 -462 -12 -14 -46 -56 -76 -93 l-54 -69 -17 19 c-9 10 -27 47 -39 83 -13 36 -29 79 -37 97 -8 17 -14 37 -14 45 0 8 -4 18 -8 23 -5 6 -24 51 -42 100 -18 50 -38 104 -45 120 -6 17 -22 57 -34 90 -42 111 -56 147 -89 227 l-20 47 11 15 c7 8 55 31 107 51 52 19 104 40 115 45 11 5 43 18 70 30 28 12 64 28 82 36 17 8 34 14 37 14 4 0 34 13 69 29 169 79 168 79 184 59z" class=""></path> <path d="M8484 21029 l-19 -21 -3 -115 c-5 -173 7 -213 69 -213 l29 0 20 20 20 20 0 143 0 144 -23 21 c-13 12 -35 22 -49 22 l-25 0 -19 -21z"></path> <path d="M8499 20608 c-9 -7 -21 -22 -27 -33 l-10 -19 5 -457 6 -457 -19 -10 c-10 -5 -50 -13 -89 -17 l-70 -8 -94 -33 c-101 -37 -176 -76 -247 -130 -59 -45 -45 -51 -221 99 -261 221 -377 320 -403 345 -14 12 -39 32 -57 43 l-32 20 -24 -6 c-13 -4 -31 -20 -41 -36 l-17 -29 6 -20 c7 -22 16 -32 70 -75 20 -16 56 -46 79 -65 23 -19 62 -51 86 -70 24 -19 65 -53 90 -75 25 -22 66 -56 90 -75 24 -19 60 -48 80 -65 72 -59 113 -90 121 -93 12 -5 12 -62 0 -62 -5 0 -34 -39 -66 -86 l-58 -85 -16 7 c-9 3 -25 9 -36 11 l-21 5 -21 -19 c-12 -10 -24 -28 -28 -41 l-7 -23 37 -34 38 -34 -6 -23 c-3 -13 -16 -72 -29 -133 l-23 -110 -146 4 -147 3 -21 -21 c-23 -23 -27 -61 -11 -92 l11 -19 160 0 160 0 3 -12 c13 -47 34 -190 30 -202 -3 -9 -16 -18 -27 -21 -21 -6 -39 -13 -137 -50 -25 -9 -63 -24 -85 -32 -130 -50 -137 -54 -153 -86 l-13 -27 12 -22 c31 -59 75 -51 314 57 28 13 69 31 93 40 l42 17 15 -12 c8 -6 17 -22 21 -33 4 -12 19 -41 34 -64 16 -22 31 -49 34 -60 l6 -18 -160 -165 -160 -165 0 -37 0 -37 16 -15 c44 -44 65 -30 242 167 74 81 141 147 149 147 14 0 90 -57 185 -140 l29 -25 -51 -100 c-27 -55 -55 -117 -62 -137 l-11 -37 16 -24 c20 -31 46 -38 83 -22 l29 12 54 127 c58 138 61 142 92 126 33 -18 148 -48 207 -54 29 -3 58 -8 63 -12 l10 -6 -2 -271 c-3 -292 -1 -308 34 -324 l23 -11 31 13 c43 18 43 18 43 326 l0 279 23 4 c12 3 47 7 77 10 30 2 77 10 104 17 l48 13 27 -32 26 -32 26 0 26 0 19 21 19 21 0 45 0 46 20 11 c11 6 46 30 78 54 72 53 59 55 147 -33 l74 -75 32 0 31 0 16 18 c10 10 17 30 17 45 l0 27 -61 57 c-33 32 -67 61 -75 66 -24 13 -16 35 36 103 28 36 60 84 71 105 28 56 36 56 119 4 82 -50 98 -53 131 -27 l22 19 0 32 0 31 -19 15 c-10 8 -52 31 -91 51 l-73 37 0 26 c0 14 5 42 11 61 6 19 14 64 17 100 l7 65 232 5 c127 3 233 7 236 10 30 34 27 94 -6 112 l-20 11 -214 -5 -213 -5 -9 11 c-5 6 -12 36 -15 66 -3 30 -8 76 -12 102 l-6 48 18 6 c18 5 41 14 137 50 23 9 58 24 77 34 l35 19 8 26 9 27 -19 27 c-24 32 -56 38 -97 17 -81 -39 -171 -77 -195 -82 l-28 -6 -33 63 c-18 35 -54 92 -81 127 -60 77 -60 68 7 122 72 57 104 96 104 124 0 28 -39 66 -67 66 l-20 0 -79 -75 c-85 -80 -101 -86 -129 -55 -10 11 -42 34 -71 50 -28 17 -57 36 -63 43 l-11 14 86 171 85 171 -7 26 -6 26 -29 14 -28 15 -26 -10 -26 -10 -53 -112 c-29 -62 -60 -133 -70 -158 -9 -25 -25 -55 -35 -68 l-17 -23 -40 14 c-38 15 -75 23 -164 36 l-45 6 -3 471 -2 471 -18 16 c-9 8 -28 18 -42 22 l-25 6 -16 -13z m204 -1118 c335 -78 575 -307 657 -630 l20 -78 0 -129 c0 -70 -5 -146 -11 -168 -5 -22 -14 -57 -20 -78 -5 -21 -13 -45 -18 -55 -4 -9 -16 -35 -26 -57 -77 -176 -261 -352 -445 -426 -110 -44 -132 -49 -239 -60 l-104 -10 -91 11 c-50 5 -109 17 -131 25 -121 43 -154 58 -217 96 -210 127 -341 328 -393 604 l-17 89 6 76 c28 310 210 586 475 720 65 33 87 41 201 66 35 8 66 17 69 20 2 2 48 4 102 4 l98 0 84 -20z"></path> <path d="M10400 20534 l-70 -66 0 -34 0 -33 22 -21 c12 -11 31 -20 41 -20 23 0 116 68 152 112 l25 30 0 28 0 29 -22 21 -22 20 -28 0 -28 0 -70 -66z"></path> <path d="M6520 20468 c-38 -41 -18 -81 75 -151 l64 -48 27 3 27 3 20 27 21 28 -10 27 -9 27 -65 53 -65 53 -32 0 -32 0 -21 -22z"></path> <path d="M7792 20343 c-7 -3 -19 -18 -27 -34 l-16 -29 21 -44 c11 -25 20 -48 20 -51 0 -16 63 -130 78 -141 26 -20 56 -17 80 9 33 35 29 68 -24 184 -8 17 -14 35 -14 41 0 5 -13 24 -29 41 l-29 31 -24 -1 c-12 0 -29 -3 -36 -6z"></path> <path d="M9225 20336 c-11 -8 -27 -29 -37 -48 -58 -117 -88 -190 -88 -215 l0 -30 23 -21 c28 -26 55 -28 82 -4 20 17 95 159 95 179 0 6 7 16 15 23 l15 12 0 39 0 39 -20 20 c-23 23 -57 26 -85 6z"></path> <path d="M10149 20304 c-30 -25 -83 -74 -119 -108 -36 -33 -87 -81 -115 -105 -27 -25 -95 -86 -150 -136 -55 -51 -137 -124 -182 -164 l-83 -72 0 -22 c0 -29 26 -66 54 -77 l21 -8 27 14 c14 7 71 55 125 106 91 86 202 187 343 313 31 28 93 83 138 123 l82 74 0 31 c0 38 -7 50 -37 66 -34 18 -46 14 -104 -35z"></path> <path d="M6787 20252 c-10 -10 -17 -32 -17 -49 l0 -31 51 -43 c28 -24 63 -55 78 -69 79 -77 114 -86 156 -45 l25 26 0 26 0 26 -32 28 c-18 16 -65 56 -105 89 l-72 60 -34 0 -34 0 -16 -18z"></path> <path d="M7935 19975 c-33 -32 -32 -50 14 -147 21 -46 48 -105 60 -133 28 -64 48 -85 81 -85 80 0 74 100 -16 272 -8 14 -14 33 -14 41 0 22 -58 77 -81 77 -11 0 -31 -11 -44 -25z"></path> <path d="M6946 19369 l-26 -20 0 -27 c1 -33 28 -67 61 -77 13 -4 34 -13 46 -21 12 -7 40 -16 62 -20 l40 -6 25 25 c14 15 26 35 26 45 0 23 -36 72 -53 72 -7 0 -34 12 -62 25 -61 30 -85 31 -119 4z"></path> <path d="M9910 19265 c-30 -13 -67 -35 -82 -50 l-28 -26 0 -22 c1 -27 29 -62 58 -71 l21 -7 48 21 c111 48 123 59 123 107 l0 32 -26 20 c-32 26 -44 25 -114 -4z"></path> <path d="M7265 19230 l-18 -20 0 -32 0 -31 17 -13 c10 -7 46 -25 81 -39 l64 -27 25 6 c14 3 33 18 43 32 l16 26 -9 25 -9 25 -63 34 -62 34 -34 0 -33 0 -18 -20z"></path> <path d="M5848 18708 c-9 -7 -19 -27 -23 -45 l-6 -32 23 -23 23 -23 235 2 234 2 13 17 c18 24 16 79 -3 98 l-15 16 -233 0 -232 0 -16 -12z"></path> <path d="M6506 18704 c-20 -19 -21 -74 -2 -99 l13 -19 289 3 289 3 18 15 17 16 0 29 0 28 -20 20 -20 20 -284 0 -285 0 -15 -16z"></path> <path d="M10096 18704 c-9 -8 -19 -26 -22 -39 l-6 -23 17 -26 17 -26 329 0 328 0 15 22 c22 30 20 60 -4 86 l-21 22 -319 0 -319 0 -15 -16z"></path> <path d="M10890 18700 l-20 -20 0 -28 c0 -16 6 -36 13 -45 l12 -18 184 -4 184 -3 23 23 c29 29 31 64 4 93 l-21 22 -179 0 -180 0 -20 -20z"></path> <path d="M9692 18155 c-41 -52 -20 -80 118 -156 52 -29 130 -72 173 -96 l77 -43 34 0 34 0 16 25 c30 46 9 93 -53 122 -20 9 -97 50 -171 91 -74 41 -151 76 -171 79 l-36 5 -21 -27z"></path> <path d="M7035 18161 c-3 -5 -18 -12 -34 -16 -16 -3 -41 -17 -55 -30 l-26 -24 0 -26 0 -26 26 -24 c27 -25 62 -32 80 -17 5 5 30 17 57 26 76 28 99 82 54 124 l-23 22 -37 0 c-20 0 -38 -4 -42 -9z"></path> <path d="M9442 17750 c-12 -5 -27 -21 -34 -35 l-12 -26 10 -25 c12 -33 543 -563 571 -570 45 -12 92 42 77 90 -7 22 -508 528 -553 558 -29 20 -28 20 -59 8z"></path> <path d="M7272 17574 c-13 -8 -56 -54 -97 -101 l-75 -85 0 -22 c0 -13 10 -32 23 -44 l23 -22 27 0 27 0 90 93 90 92 0 37 0 37 -22 15 c-29 20 -58 20 -86 0z"></path> <path d="M8977 17552 c-23 -26 -21 -63 7 -124 14 -29 41 -93 61 -143 41 -100 54 -115 101 -115 l33 0 15 22 c20 28 20 62 1 96 -8 15 -24 50 -35 77 -12 28 -25 59 -30 70 -5 11 -16 38 -25 60 -9 21 -23 47 -32 57 l-16 18 -32 0 -32 0 -16 -18z"></path> <path d="M7867 17413 c-8 -10 -36 -61 -60 -113 -24 -52 -59 -124 -76 -159 -35 -73 -38 -92 -15 -126 l16 -25 32 0 c45 0 61 15 96 95 35 77 60 133 96 212 29 63 30 87 4 113 l-20 20 -28 0 -29 0 -16 -17z"></path> <path d="M6910 17192 c-87 -91 -237 -248 -347 -364 l-63 -66 0 -24 c0 -12 9 -34 19 -47 l19 -24 32 0 33 0 45 49 c25 27 125 132 221 233 242 253 232 240 211 291 l-12 28 -21 6 c-42 11 -53 5 -137 -82z"></path> <path d="M9193 17122 l-21 -3 -14 -30 -15 -29 16 -52 c9 -28 28 -64 43 -80 l26 -28 25 0 25 0 26 31 c33 39 33 42 -7 119 l-32 64 -25 6 c-14 3 -35 4 -47 2z"></path> <path d="M10150 17044 c-8 -3 -23 -18 -32 -35 l-18 -30 14 -27 c21 -40 187 -202 215 -209 l25 -6 25 14 26 15 3 39 c3 48 10 38 -109 153 l-96 92 -19 -1 c-11 -1 -26 -3 -34 -5z"></path> <path d="M8502 17010 c-12 -5 -27 -22 -33 -37 l-11 -28 5 -73 c2 -40 9 -78 16 -85 16 -16 85 -15 105 2 l16 13 0 88 0 87 -17 15 c-25 22 -54 28 -81 18z"></path> <path d="M8489 16701 l-24 -19 0 -277 0 -277 24 -19 c31 -25 63 -24 89 4 l22 23 0 271 0 272 -26 20 c-33 26 -55 26 -85 2z"></path> <path d="M4841 12567 l-24 -11 -54 -116 c-30 -63 -79 -165 -110 -227 l-55 -112 14 -28 c7 -15 25 -34 39 -42 l25 -14 28 19 29 18 34 76 c46 101 73 157 127 271 51 106 54 118 29 147 -23 26 -52 33 -82 19z"></path> <path d="M5653 12556 l-28 -24 0 -112 0 -112 19 -14 c26 -19 81 -18 100 2 l16 15 0 112 c0 119 -3 127 -37 146 -30 16 -38 14 -70 -13z"></path> <path d="M6551 12568 c-57 -21 -61 -46 -19 -137 l31 -69 24 -11 c35 -16 50 -14 73 11 l20 22 0 28 c0 29 -44 131 -63 146 -22 16 -42 19 -66 10z"></path> <path d="M6115 12390 l-28 -29 18 -83 c39 -188 73 -358 85 -433 29 -180 47 -224 96 -239 l21 -6 28 26 28 26 -7 60 c-3 33 -10 77 -15 97 -18 67 -43 183 -52 239 -5 32 -16 91 -24 132 -8 41 -20 102 -25 135 l-11 60 -25 23 c-34 30 -55 28 -89 -8z"></path> <path d="M5235 12330 c-12 -4 -27 -16 -35 -25 l-14 -17 -12 -122 c-7 -66 -18 -163 -24 -215 l-11 -93 22 -24 22 -24 27 0 27 0 20 23 20 22 13 100 c6 55 18 148 26 207 l15 108 -16 30 c-9 16 -20 30 -24 30 -5 0 -15 2 -23 4 -7 3 -22 1 -33 -4z"></path> <path d="M6706 12159 l-26 -20 0 -30 c0 -16 4 -37 10 -47 5 -9 25 -51 43 -92 19 -41 49 -105 66 -143 17 -37 31 -73 31 -80 0 -7 4 -17 9 -23 5 -5 28 -54 51 -109 24 -55 53 -123 66 -152 13 -28 24 -54 24 -58 0 -3 13 -33 29 -68 69 -148 91 -198 91 -208 0 -5 4 -17 10 -27 10 -18 28 -60 55 -127 9 -21 23 -47 32 -57 l16 -18 33 0 33 0 20 26 c27 35 27 45 -8 118 -41 85 -101 217 -101 221 0 2 -14 34 -31 72 -16 37 -34 77 -39 88 -5 11 -25 55 -44 98 -20 42 -36 83 -36 90 0 7 -4 17 -9 23 -5 5 -21 37 -35 71 -27 66 -62 143 -102 230 -13 28 -24 55 -24 59 0 7 -30 74 -58 129 -29 58 -62 69 -106 34z"></path> <path d="M5648 12062 l-23 -28 0 -306 0 -306 19 -21 19 -21 26 0 c15 0 37 7 49 16 l22 15 0 319 0 319 -26 20 c-36 28 -58 26 -86 -7z"></path> <path d="M4458 11778 c-9 -7 -39 -61 -67 -119 l-51 -106 6 -19 c12 -32 46 -64 69 -64 24 0 75 35 75 51 0 6 16 44 35 85 l35 74 0 34 0 35 -26 20 c-30 24 -53 26 -76 9z"></path> <path d="M5140 11483 c-8 -2 -23 -15 -34 -30 l-18 -25 -8 -92 c-23 -259 -31 -334 -40 -371 -5 -22 -12 -66 -15 -98 l-7 -59 23 -24 22 -24 32 0 32 0 16 18 17 19 10 79 c5 43 14 124 20 179 6 55 18 156 25 225 20 175 2 225 -75 203z"></path> <path d="M6317 11429 c-10 -6 -22 -22 -28 -36 l-9 -25 14 -62 c19 -75 30 -132 62 -311 26 -148 40 -181 78 -191 37 -9 57 -2 79 28 l20 27 -10 38 c-6 21 -16 65 -23 98 -7 33 -18 89 -26 125 -8 36 -21 103 -28 150 -8 47 -20 100 -26 118 l-12 33 -25 10 c-31 11 -43 11 -66 -2z"></path> <path d="M3133 9742 c-51 -7 -77 -73 -45 -113 l19 -22 513 0 514 0 18 23 c25 30 23 62 -6 89 l-24 22 -483 2 c-266 1 -494 1 -506 -1z" class=""></path> <path d="M5502 9739 c-12 -4 -28 -22 -37 -38 l-16 -31 15 -29 c20 -38 34 -41 231 -41 l171 0 22 16 22 15 0 38 0 38 -21 19 -21 19 -173 1 c-95 0 -182 -3 -193 -7z"></path> <path d="M6557 9741 c-51 -15 -69 -69 -38 -110 l19 -24 486 0 486 0 20 18 20 18 0 29 0 28 -20 20 -21 21 -469 2 c-259 1 -476 0 -483 -2z"></path> <path d="M9688 9709 c-13 -16 -37 -47 -55 -67 l-31 -38 -54 -20 c-29 -12 -77 -26 -106 -31 l-53 -10 -216 9 -216 8 -31 -18 -31 -18 -3 -36 -3 -36 23 -22 23 -21 270 4 270 4 49 11 c60 14 149 63 193 105 l32 30 38 -34 c44 -39 125 -81 200 -104 l52 -15 206 0 206 0 24 16 25 16 0 38 0 38 -27 17 -27 18 -221 1 -220 1 -57 27 -58 28 -62 65 -62 65 -27 0 -27 0 -24 -31z"></path> <path d="M11057 9547 c-35 -13 -57 -38 -57 -67 l0 -27 23 -21 23 -22 525 0 526 0 22 24 23 24 -4 27 -3 28 -26 19 -26 20 -502 1 c-276 1 -512 -2 -524 -6z"></path> <path d="M4751 9251 c-10 -10 -22 -34 -26 -52 -20 -89 -73 -127 -219 -160 l-91 -20 -413 2 -412 2 -20 -18 -20 -18 0 -37 0 -38 14 -12 15 -12 473 4 473 4 45 18 c74 30 163 77 193 102 37 31 48 30 80 -6 88 -98 209 -129 509 -130 l177 0 28 11 c33 12 43 26 43 61 l0 27 -26 20 -27 21 -222 0 -221 0 -55 16 c-86 26 -140 73 -184 161 -35 73 -76 92 -114 54z"></path> <path d="M7878 9252 c-16 -9 -28 -20 -28 -25 0 -5 -13 -38 -30 -74 -16 -35 -30 -68 -30 -72 0 -6 -79 -195 -131 -311 -11 -25 -27 -60 -35 -77 -8 -18 -21 -48 -29 -65 -49 -110 -75 -170 -75 -174 0 -3 -9 -26 -21 -52 -19 -45 -25 -59 -55 -130 -22 -52 -42 -100 -58 -135 -8 -17 -28 -63 -45 -100 -17 -38 -31 -71 -31 -73 0 -3 -9 -26 -21 -52 -11 -26 -25 -58 -31 -72 -5 -14 -16 -38 -23 -55 -51 -114 -67 -151 -104 -240 -23 -55 -53 -124 -67 -153 -13 -29 -24 -55 -24 -59 0 -3 -14 -34 -32 -70 l-31 -64 16 -34 17 -35 420 0 420 0 -2 -192 -3 -193 -708 4 -707 4 -25 -27 c-33 -36 -32 -39 20 -128 25 -43 45 -82 45 -88 0 -5 4 -10 9 -10 5 0 13 -10 17 -22 4 -13 18 -40 31 -61 13 -20 40 -68 60 -105 20 -37 47 -84 60 -104 l23 -38 1245 0 1244 0 24 33 c14 17 36 55 49 82 14 28 39 77 58 110 81 148 101 184 124 226 31 54 33 80 5 105 l-21 19 -712 0 -711 0 0 120 0 120 473 1 473 2 19 17 c30 27 25 52 -41 191 -33 71 -70 149 -81 174 -22 50 -59 129 -93 205 -13 28 -35 77 -50 110 -48 106 -77 170 -86 185 -5 8 -12 22 -15 30 -7 16 -45 100 -74 165 -10 22 -30 65 -43 95 -14 30 -38 84 -55 120 -16 36 -41 90 -55 120 -13 30 -40 89 -60 130 -19 41 -46 100 -60 130 -41 92 -106 232 -137 295 -48 99 -90 195 -90 203 0 16 -41 87 -57 100 -22 16 -32 15 -65 -6z m146 -437 c20 -42 36 -81 36 -86 0 -6 6 -23 14 -37 14 -27 22 -46 71 -157 33 -73 54 -120 94 -208 17 -37 31 -70 31 -72 0 -2 22 -50 50 -107 27 -57 50 -110 50 -120 l0 -16 -52 -34 c-29 -18 -57 -35 -63 -37 -5 -2 -26 -17 -46 -32 -20 -16 -40 -29 -44 -29 -3 0 -32 -19 -63 -43 -81 -61 -111 -79 -122 -72 l-10 6 0 553 c0 481 2 566 16 566 1 0 19 -34 38 -75z m-174 -345 l0 -389 -8 -5 c-5 -3 -32 14 -60 37 -28 23 -82 66 -121 96 -39 30 -71 60 -71 67 0 7 30 81 66 166 56 130 145 349 167 411 4 10 11 15 17 12 l10 -6 0 -389z m-249 -367 c33 -27 72 -57 87 -68 15 -11 57 -44 95 -73 l67 -54 0 -149 0 -149 -14 0 c-8 0 -47 19 -88 43 -40 24 -80 46 -88 50 -8 4 -55 30 -105 57 -49 28 -102 55 -117 61 l-28 11 0 18 c0 26 116 300 127 300 2 0 31 -21 64 -47z m858 -255 c116 -266 192 -433 257 -561 19 -38 34 -74 34 -82 0 -7 7 -18 16 -25 l15 -13 -3 -25 -3 -24 -391 0 c-215 -1 -396 2 -402 6 l-12 7 0 234 0 233 73 48 c39 26 130 86 200 133 214 143 188 135 216 69z m-1035 -159 c33 -17 66 -34 71 -39 13 -10 100 -57 215 -117 52 -27 105 -56 118 -64 l23 -14 -3 -95 -3 -95 -342 -3 -343 -2 0 17 c0 9 9 35 19 57 31 65 66 147 91 206 12 30 26 59 31 65 5 5 9 17 9 27 0 22 32 87 44 88 5 0 36 -14 70 -31z m1823 -1086 c4 -10 -13 -44 -79 -163 -14 -25 -35 -63 -46 -84 -12 -22 -27 -43 -34 -48 l-13 -8 -1163 0 -1162 0 -35 55 c-19 30 -35 57 -35 61 0 3 -13 26 -30 51 -16 24 -30 46 -30 49 0 2 -11 22 -25 45 -14 22 -24 43 -21 47 2 4 604 7 1337 6 l1333 -1 3 -10z"></path> <path d="M2815 8995 c-30 -29 -32 -55 -6 -86 l19 -24 167 -3 166 -3 25 16 24 15 0 39 0 39 -25 16 -24 16 -161 0 -161 0 -24 -25z" class=""></path> <path d="M5880 9001 l-24 -19 1 -37 c1 -20 6 -42 13 -49 l11 -11 330 -3 329 -3 25 25 c31 32 32 56 0 90 l-24 26 -318 0 -318 0 -25 -19z"></path> <path d="M8786 8849 c-30 -36 -33 -59 -8 -88 20 -25 21 -25 179 -23 l122 2 15 16 c9 8 16 30 16 48 l0 33 -23 21 -23 22 -126 0 -126 0 -26 -31z"></path> <path d="M9554 8860 c-14 -8 -28 -26 -31 -39 l-6 -25 14 -25 15 -26 536 -3 536 -2 16 16 16 15 0 33 0 33 -20 18 -20 18 -516 1 -515 1 -25 -15z"></path> <path d="M12037 8850 c-32 -38 -34 -63 -7 -90 l20 -20 234 0 235 0 19 28 20 27 -13 32 c-18 43 -7 41 -256 48 l-226 6 -26 -31z"></path> <path d="M11623 8180 l-23 -9 -30 -64 -30 -64 -42 -42 c-48 -48 -104 -80 -160 -93 -21 -4 -57 -12 -80 -18 -186 -41 -388 47 -462 203 l-26 57 -25 6 c-14 3 -36 4 -49 0 l-23 -6 -17 -43 c-9 -23 -16 -47 -16 -53 0 -41 -101 -115 -205 -151 l-50 -17 -364 -1 -363 0 -19 -24 c-10 -13 -19 -36 -19 -51 l0 -27 19 -17 19 -17 349 1 c472 1 548 17 676 142 l49 48 67 -58 c69 -60 87 -71 186 -105 l60 -22 146 0 146 0 24 11 c13 6 52 24 87 40 34 15 70 35 80 43 10 9 39 36 66 60 l48 43 56 -59 57 -58 60 -29 c33 -15 69 -33 80 -40 l20 -11 364 -3 364 -4 19 24 c24 31 23 60 -5 90 l-24 26 -312 -6 -312 -5 -62 18 c-124 37 -227 138 -227 224 0 10 -14 31 -31 45 -34 29 -34 29 -66 16z"></path> <path d="M3705 7866 l-25 -25 0 -24 c0 -14 9 -35 19 -48 l19 -24 173 2 173 1 13 18 c17 24 16 74 -3 99 l-15 20 -164 3 -165 3 -25 -25z"></path> <path d="M4988 7881 c-35 -12 -50 -80 -25 -114 l12 -17 900 0 c495 0 908 0 917 0 42 0 65 74 35 114 l-13 18 -907 1 c-499 1 -913 0 -919 -2z"></path> <path d="M9812 6947 c-25 -27 -28 -64 -8 -93 l14 -19 199 -5 c238 -6 273 2 273 66 l0 25 -25 24 -24 25 -204 0 -204 0 -21 -23z"></path> <path d="M10820 6963 c-25 -9 -40 -35 -40 -70 l0 -33 24 -16 25 -16 323 2 323 1 23 15 23 15 -3 42 -3 42 -25 12 -25 13 -315 -1 c-173 0 -322 -3 -330 -6z"></path> <path d="M5051 5936 l-22 -24 3 -33 3 -34 35 -17 35 -18 116 0 115 0 27 13 28 12 6 25 c10 37 4 63 -20 82 l-22 18 -141 0 -141 0 -22 -24z"></path> <path d="M5623 5938 c-41 -46 -36 -86 14 -111 l28 -14 256 1 256 1 26 18 27 17 0 36 0 36 -22 19 -23 18 -271 1 -271 0 -20 -22z"></path> <path d="M8853 5942 c-12 -9 -25 -29 -28 -44 l-7 -28 29 -27 30 -28 249 1 249 1 26 12 c15 7 31 23 37 35 l10 22 -14 27 c-8 14 -23 31 -34 37 l-19 10 -253 0 -253 0 -22 -18z"></path> <path d="M7146 5451 c-9 -10 -22 -36 -28 -57 l-10 -39 -38 -36 -38 -36 -53 -17 c-29 -10 -110 -24 -179 -32 l-125 -15 -347 3 -348 2 -14 -14 c-23 -24 -24 -75 -3 -104 l13 -18 433 2 433 1 66 15 c114 26 243 85 266 123 13 20 44 11 70 -20 28 -33 146 -99 177 -99 11 0 28 -4 38 -9 l17 -10 243 -2 244 -2 18 24 c24 31 24 58 0 89 l-19 24 -194 -2 -193 -2 -75 13 c-85 16 -143 42 -181 84 -28 30 -69 100 -69 119 0 31 -79 43 -104 15z"></path> <path d="M8619 5219 l-27 -10 -7 -37 -7 -37 30 -26 30 -27 138 5 139 5 23 21 c27 25 28 57 3 88 l-19 24 -138 2 -139 3 -26 -11z"></path> <path d="M6502 4469 c-44 -17 -55 -74 -19 -107 l23 -22 281 0 c309 0 307 0 329 41 l15 29 -16 29 -15 29 -37 5 c-58 9 -537 4 -561 -4z"></path> <path d="M14977 9730 l-27 -21 0 -35 0 -34 20 -20 20 -20 133 0 133 0 22 20 22 21 0 33 0 33 -21 19 -21 19 -127 3 -126 3 -28 -21z"></path> <path d="M13865 9542 c-49 -25 -58 -70 -20 -107 l24 -25 218 0 219 0 21 15 c11 8 24 26 27 40 l6 25 -10 21 c-6 11 -23 25 -38 31 l-27 11 -198 1 -198 1 -24 -13z"></path> <path d="M14352 8047 c-28 -29 -28 -67 -2 -95 l21 -22 189 0 189 0 20 26 c27 35 26 59 -4 89 l-24 25 -184 0 -184 0 -21 -23z"></path> <path d="M14557 7165 l-27 -26 0 -25 0 -25 26 -24 c33 -30 63 -32 92 -5 l22 21 0 34 0 34 -26 20 c-35 27 -53 26 -87 -4z"></path> <path d="M12488 6422 c-69 -42 -40 -142 41 -142 l31 0 20 20 20 20 0 38 0 38 -30 22 c-34 26 -45 26 -82 4z"></path> <path d="M12934 5868 c-12 -5 -28 -24 -36 -41 l-15 -32 10 -23 c6 -12 25 -30 43 -38 l32 -15 32 16 c17 9 35 27 40 41 l10 25 -10 19 c-25 47 -69 67 -106 48z"></path> <path d="M11048 5617 l-28 -23 0 -41 0 -42 30 -21 30 -21 18 5 c10 4 28 15 40 27 l22 20 0 34 0 33 -31 26 c-37 31 -46 32 -81 3z"></path> <path d="M12028 5405 c-10 -13 -18 -37 -18 -53 l0 -29 23 -21 c39 -37 95 -27 121 23 l18 33 -11 20 c-6 11 -18 28 -27 36 l-15 16 -37 0 -37 -1 -17 -24z"></path> <path d="M12676 5139 l-27 -21 3 -41 3 -41 33 -19 33 -19 30 12 c34 15 49 37 49 76 l0 27 -26 23 c-31 30 -63 30 -98 3z"></path> <path d="M10275 4894 c-26 -28 -29 -43 -19 -82 l6 -22 34 -16 34 -16 30 12 c34 14 50 37 50 72 l0 24 -28 27 -28 27 -28 0 -27 0 -24 -26z"></path> <path d="M11255 4743 c-28 -6 -45 -32 -45 -65 l0 -28 22 -25 22 -25 32 0 32 0 26 31 c32 38 33 63 1 94 l-24 25 -23 -1 c-13 -1 -32 -3 -43 -6z"></path> <path d="M9363 4143 l-23 -15 0 -42 0 -43 23 -21 c13 -12 35 -22 48 -22 l26 0 20 23 c69 75 -12 178 -94 120z"></path> <path d="M10682 4140 l-22 -21 0 -39 0 -39 26 -20 c34 -27 55 -26 87 2 l27 23 0 36 0 37 -26 20 c-34 27 -64 27 -92 1z"></path> <path d="M14690 21913 c-30 -16 -57 -30 -60 -34 -3 -3 -28 -17 -56 -31 -27 -14 -68 -36 -90 -48 -21 -13 -68 -38 -104 -58 -36 -19 -69 -38 -75 -42 -12 -9 -190 -104 -370 -198 -27 -14 -60 -35 -72 -46 l-23 -19 0 -34 0 -33 20 -20 20 -20 28 0 c29 0 37 4 132 63 78 47 78 47 152 -16 35 -29 111 -90 171 -135 l107 -83 0 -17 c0 -10 -13 -55 -30 -102 -36 -102 -37 -112 -6 -144 l23 -26 29 0 29 0 26 24 27 24 7 48 c3 25 10 56 15 68 4 11 15 48 24 81 16 60 55 196 82 290 8 28 19 69 24 93 5 24 12 47 15 53 3 5 13 35 21 66 9 32 22 78 29 103 7 25 20 69 28 98 l16 54 -11 23 c-9 20 -46 45 -66 45 -5 0 -32 -12 -62 -27z m-44 -209 c-3 -9 -9 -28 -12 -42 -3 -15 -11 -43 -19 -62 -7 -19 -21 -62 -30 -95 -10 -33 -24 -80 -31 -105 -7 -25 -17 -58 -22 -75 l-9 -30 -19 -3 -19 -2 -57 48 c-31 27 -86 71 -122 98 l-67 48 3 15 c2 9 30 30 63 47 33 18 77 42 98 53 20 12 54 30 75 42 20 11 60 34 87 49 28 16 58 29 69 30 l18 0 -6 -16z"></path> <path d="M2510 21293 c-29 -32 -128 -136 -219 -231 -205 -214 -205 -213 -131 -282 35 -33 327 -313 539 -517 l96 -93 31 0 31 0 219 226 c246 253 238 244 230 289 l-6 33 -30 12 c-50 21 -63 12 -235 -176 -55 -60 -124 -133 -152 -163 l-53 -54 -52 49 c-29 26 -81 75 -116 108 l-62 61 140 141 140 140 0 36 0 35 -18 16 c-10 10 -32 17 -49 17 l-30 0 -64 -68 c-35 -37 -93 -100 -129 -139 l-65 -73 -18 0 -18 0 -99 96 -99 97 9 16 c5 9 90 99 189 200 l181 183 0 28 c0 15 -8 37 -19 48 l-18 22 -35 0 -35 0 -53 -57z"></path> <path d="M15297 21191 c-162 -159 -186 -181 -323 -306 -60 -55 -137 -127 -171 -161 l-63 -61 0 -24 c0 -13 11 -37 25 -52 l26 -27 31 0 31 0 185 183 c101 100 196 195 210 210 15 15 46 44 70 64 l43 36 9 -9 9 -9 -13 -55 c-7 -30 -21 -100 -30 -155 -10 -55 -22 -125 -28 -155 -19 -105 -38 -215 -47 -285 -5 -38 -14 -82 -20 -98 -6 -15 -13 -62 -17 -105 l-7 -79 31 -21 c47 -34 52 -31 199 111 76 72 161 152 188 177 27 25 83 77 124 117 42 39 90 83 106 98 17 15 56 52 88 81 l57 54 0 28 c-1 15 -9 38 -20 51 l-20 23 -36 0 -37 0 -71 -70 c-326 -318 -429 -417 -435 -414 -10 4 -6 82 8 152 7 36 19 97 26 135 8 39 21 106 29 150 9 44 16 93 16 109 0 15 7 58 14 95 34 152 46 224 46 265 l0 43 -18 16 c-10 10 -33 17 -51 17 l-33 0 -131 -129z"></path> <path d="M1688 20375 c-44 -59 -26 -83 154 -205 78 -53 146 -103 151 -112 l10 -15 -60 -79 c-57 -75 -208 -288 -246 -347 -30 -46 -59 -41 -126 21 -7 7 -26 21 -40 30 -22 14 -60 43 -147 111 -5 5 -20 14 -33 20 l-22 12 -22 -7 c-12 -3 -32 -16 -44 -27 l-23 -20 0 -27 c0 -39 11 -49 176 -163 176 -122 185 -128 414 -297 l175 -130 25 1 c39 1 59 12 75 43 28 54 17 68 -131 168 -193 131 -204 139 -204 150 0 6 46 73 103 148 56 76 131 178 166 229 35 50 69 91 76 91 12 0 264 -183 275 -200 3 -4 22 -15 43 -25 l38 -18 23 12 c12 7 30 25 39 40 l16 27 -6 23 -6 22 -63 47 c-35 26 -93 67 -129 92 -59 40 -167 117 -279 197 -22 15 -95 70 -163 121 l-123 92 -38 0 -37 -1 -17 -24z" class=""></path> <path d="M16288 20282 c-18 -15 -73 -59 -123 -97 -49 -38 -94 -73 -100 -77 -27 -22 -273 -207 -310 -233 -23 -16 -72 -52 -108 -79 l-66 -49 -6 -29 -7 -29 12 -29 12 -28 21 -6 c12 -3 32 -6 43 -6 l22 0 88 72 c49 39 214 165 366 279 324 244 335 256 267 313 -39 33 -70 33 -111 -2z"></path> <path d="M16650 19863 c-8 -3 -23 -12 -32 -21 l-18 -15 0 -30 0 -29 76 -114 c41 -62 74 -120 72 -129 -2 -8 -162 -111 -357 -228 l-355 -212 -8 -30 c-11 -43 -1 -69 37 -89 l34 -19 38 18 c21 10 66 38 100 62 35 23 66 43 70 43 3 0 20 10 37 23 17 12 72 47 121 77 101 60 239 148 302 191 23 16 50 29 60 29 l19 0 22 -42 c12 -24 43 -79 70 -123 l48 -80 28 -14 28 -13 27 19 c14 11 30 31 35 45 l9 25 -34 58 c-45 75 -46 77 -109 176 -66 103 -68 106 -121 194 -23 39 -53 86 -66 106 -12 19 -23 40 -23 46 0 17 -65 83 -81 82 -8 0 -21 -3 -29 -6z"></path> <path d="M978 19309 c-10 -5 -50 -76 -91 -157 -104 -207 -205 -398 -245 -462 -12 -19 -22 -47 -22 -61 l0 -26 24 -23 25 -22 25 0 c40 0 52 16 116 148 32 67 64 125 69 128 12 7 50 -9 136 -57 72 -40 174 -95 310 -167 55 -29 138 -74 185 -100 47 -26 97 -50 113 -54 l27 -6 23 11 c30 16 37 28 37 69 0 56 30 38 -540 327 -113 57 -208 110 -212 117 l-7 13 64 111 c35 61 67 122 70 135 l7 25 -13 24 c-20 39 -62 50 -101 27z"></path> <path d="M17250 18784 c-30 -11 -121 -56 -220 -109 -14 -8 -113 -56 -220 -108 -107 -52 -238 -115 -291 -141 l-97 -47 -6 -22 c-14 -54 18 -107 66 -107 18 0 306 135 443 208 17 8 37 19 45 23 8 5 78 38 155 74 77 36 155 74 173 83 81 41 84 112 7 149 l-20 9 -35 -12z"></path> <path d="M492 17184 c-7 -3 -19 -19 -27 -35 l-16 -29 1 -3894 0 -3893 9 -25 9 -25 37 -17 36 -17 29 6 c16 4 41 20 55 37 l25 30 0 3906 -1 3907 -20 24 -20 24 -52 3 c-29 2 -58 1 -65 -2z"></path> <path d="M17436 17159 l-26 -31 0 -3904 0 -3904 29 -32 29 -33 44 1 44 1 27 23 27 24 0 3918 0 3919 -25 24 -24 25 -50 0 -49 0 -26 -31z"></path> <path d="M17092 8357 c-19 -23 -37 -123 -63 -357 -5 -47 -14 -95 -19 -108 -16 -37 -12 -69 13 -96 l22 -26 150 -20 c150 -20 195 -27 375 -56 52 -9 127 -18 165 -21 l70 -5 16 19 16 18 13 85 c33 229 39 269 49 325 6 33 11 72 11 87 l0 27 -22 21 c-29 26 -49 25 -78 -5 l-23 -24 -8 -93 c-4 -51 -13 -115 -18 -143 -6 -27 -13 -81 -17 -119 l-6 -68 -56 6 c-32 3 -85 9 -119 12 -35 4 -67 12 -73 19 l-11 13 15 73 c7 41 19 106 25 144 l12 71 -10 27 -10 26 -25 7 c-31 8 -65 -11 -70 -39 -11 -54 -26 -168 -32 -229 l-5 -66 -17 -7 c-9 -3 -63 2 -120 12 l-104 17 -6 14 c-2 8 0 37 6 65 29 142 44 239 49 306 l6 74 -18 13 c-24 18 -69 18 -83 1z" class=""></path> <path d="M825 8313 c-16 -2 -67 -10 -112 -19 -45 -8 -112 -19 -150 -24 -37 -5 -113 -16 -168 -25 -55 -8 -136 -19 -180 -25 -102 -13 -101 -13 -120 -50 l-16 -30 12 -23 c24 -44 40 -46 195 -17 60 11 145 27 189 34 44 8 107 19 141 25 74 13 84 14 84 2 0 -5 -116 -127 -257 -271 -282 -286 -278 -281 -269 -316 l7 -25 24 -11 25 -11 72 12 c304 50 414 67 523 81 147 18 151 19 174 41 l23 21 -7 27 c-4 14 -14 34 -23 45 l-17 18 -62 -6 c-33 -4 -74 -11 -90 -16 -15 -5 -57 -14 -93 -20 -92 -14 -237 -38 -288 -49 l-42 -8 -6 9 c-3 5 113 128 257 274 274 275 282 284 268 322 -7 17 -53 48 -62 41 -1 -1 -15 -4 -32 -6z"></path> <path d="M16989 7381 c-55 -35 -91 -76 -121 -139 l-22 -47 -1 -110 0 -110 26 -40 c64 -97 161 -129 261 -86 l44 19 44 48 c23 27 58 83 77 124 19 41 46 89 59 107 l25 32 39 11 40 11 40 -11 40 -11 17 -25 c22 -34 28 -112 13 -175 l-13 -52 -47 -48 -46 -49 -20 0 c-10 0 -30 -9 -43 -19 l-25 -19 0 -37 0 -36 15 -10 c82 -52 235 72 289 233 l23 68 -5 72 -5 73 -33 53 -33 53 -41 26 -41 26 -71 5 -72 4 -45 -22 -45 -22 -35 -47 c-19 -25 -55 -89 -81 -142 l-45 -96 -23 -15 c-13 -8 -36 -18 -51 -22 l-28 -7 -36 17 -35 17 -14 33 c-40 96 14 226 114 273 l50 23 13 24 12 24 -11 25 -12 25 -47 0 -48 0 -46 -29z" class=""></path> <path d="M300 7162 l-22 -18 0 -28 c0 -50 51 -75 153 -76 l47 0 9 -12 c9 -12 19 -43 59 -186 8 -31 22 -77 30 -101 19 -61 21 -56 -48 -106 -71 -53 -87 -72 -88 -102 0 -29 33 -63 63 -63 l22 0 155 126 c85 69 165 134 177 144 11 10 86 68 166 129 l145 112 6 21 c3 12 0 33 -7 47 l-12 26 -40 7 c-22 4 -83 12 -135 18 -155 16 -254 28 -520 65 -132 19 -133 19 -160 -3z m463 -153 c61 -6 130 -14 152 -18 l40 -7 0 -13 c0 -8 -58 -59 -129 -114 l-130 -100 -15 10 c-9 6 -21 32 -28 59 -19 79 -41 153 -48 165 -9 14 15 41 32 35 7 -3 64 -11 126 -17z"></path> <path d="M16657 6522 c-22 -25 -21 -65 1 -86 16 -13 144 -61 392 -146 19 -7 49 -18 65 -25 17 -7 53 -20 80 -29 52 -17 108 -40 137 -56 26 -15 66 -12 93 6 l25 16 0 33 0 32 -18 16 c-10 10 -25 17 -33 17 -8 0 -19 4 -24 9 -6 5 -44 19 -85 31 -41 12 -79 26 -85 30 -5 4 -26 11 -45 15 -19 4 -41 11 -50 15 -21 11 -77 32 -200 75 -58 20 -117 43 -132 51 -14 8 -44 14 -65 14 l-40 0 -16 -18z"></path> <path d="M1267 6490 l-27 -21 0 -25 c0 -13 13 -52 29 -86 74 -158 76 -144 -29 -183 -41 -15 -88 -34 -105 -41 -16 -7 -106 -43 -200 -79 -260 -101 -265 -104 -265 -152 0 -28 36 -63 66 -63 12 0 75 23 140 51 66 28 135 57 154 64 19 7 61 24 92 39 31 14 60 26 64 26 4 0 36 14 71 30 36 17 78 33 94 37 l29 5 18 -43 c11 -24 29 -73 41 -109 25 -72 32 -80 78 -80 74 0 78 37 18 166 -25 53 -45 100 -45 104 0 5 -13 38 -30 73 -16 36 -30 70 -30 76 0 6 -7 27 -16 48 -9 21 -20 47 -24 58 -19 53 -51 115 -59 115 -5 0 -16 2 -23 5 -8 3 -26 -4 -41 -15z"></path> <path d="M16635 5994 c-142 -37 -240 -117 -303 -248 -70 -143 -86 -182 -84 -204 2 -25 38 -61 60 -62 8 0 26 -7 40 -15 34 -18 283 -135 288 -135 3 0 74 -34 159 -75 86 -41 163 -75 173 -75 20 0 62 39 62 57 0 6 13 37 29 69 54 110 68 149 81 216 l13 67 -17 72 c-33 139 -159 275 -281 305 -16 4 -35 11 -41 15 -13 11 -150 20 -179 13z m206 -153 c26 -12 65 -38 87 -57 l41 -34 30 -62 31 -61 0 -55 0 -54 -16 -36 c-8 -21 -22 -50 -29 -67 -8 -16 -16 -40 -20 -52 -3 -11 -13 -24 -22 -27 l-16 -6 -81 39 c-112 54 -221 104 -288 135 -196 88 -184 72 -133 174 41 82 97 143 157 172 l43 20 85 -3 85 -3 46 -23z" class=""></path> <path d="M1650 5613 c-8 -3 -51 -27 -95 -53 -81 -48 -135 -78 -260 -145 -129 -70 -172 -108 -207 -185 l-20 -45 -1 -70 0 -71 18 -49 c46 -125 142 -227 244 -260 l52 -18 60 7 60 6 87 46 c48 26 92 50 97 54 6 5 68 38 139 75 217 112 233 128 185 189 l-20 26 -23 0 c-13 0 -79 -32 -147 -71 -118 -67 -187 -106 -306 -171 l-53 -28 -56 0 -57 0 -31 20 c-74 46 -125 139 -125 230 l-1 55 23 37 c25 41 53 64 112 93 22 11 42 23 43 28 2 4 8 7 13 7 5 0 48 22 96 49 49 26 126 68 172 92 l83 43 10 25 c5 14 6 36 3 48 l-6 24 -25 9 c-28 11 -41 11 -64 3z"></path> <path d="M15914 4975 l-16 -25 6 -22 c4 -20 113 -176 186 -271 12 -15 38 -51 58 -80 19 -28 50 -72 68 -97 18 -25 62 -87 96 -138 l63 -93 22 -5 c31 -8 59 3 77 31 l17 25 -12 22 c-7 12 -31 47 -55 77 -54 69 -54 62 4 155 26 42 56 92 67 110 11 19 31 53 45 76 l25 41 30 -5 c17 -3 58 -10 93 -17 l63 -12 24 23 c38 36 33 70 -15 103 l-24 17 -40 0 c-22 0 -65 4 -95 10 -31 5 -103 16 -161 25 -130 20 -206 32 -340 56 -58 10 -120 19 -137 19 l-33 0 -16 -25z m296 -126 c36 -5 78 -14 94 -19 16 -6 45 -10 65 -10 20 0 46 -3 59 -6 l22 -6 -1 -17 c-1 -24 -123 -216 -140 -219 l-15 -3 -65 91 c-35 50 -79 110 -96 133 -18 23 -33 50 -33 61 l0 18 23 -6 c12 -4 51 -11 87 -17z" class=""></path> <path d="M2078 4612 c-124 -92 -244 -178 -354 -252 -36 -25 -85 -59 -108 -75 l-41 -31 -3 -28 -4 -28 23 -24 c34 -36 49 -31 164 56 58 44 114 80 124 80 l18 0 37 -54 37 -54 -22 -49 c-12 -26 -34 -75 -49 -108 -58 -124 -80 -178 -80 -193 0 -20 47 -62 70 -62 25 0 80 71 80 102 0 7 6 24 13 38 7 14 24 54 37 90 13 36 30 73 38 82 l15 18 15 -13 15 -12 81 0 81 1 40 26 c44 28 81 66 110 113 l19 30 1 80 0 80 -23 44 c-13 24 -55 86 -93 137 l-69 94 -28 0 -27 -1 -117 -87z m175 -109 c100 -138 86 -243 -40 -292 l-32 -13 -38 12 c-56 18 -164 132 -163 171 1 12 80 79 95 79 3 0 31 20 62 45 72 55 74 55 116 -2z"></path> <path d="M15564 4372 c-12 -4 -41 -20 -65 -35 l-44 -29 -84 -104 -83 -105 0 -24 0 -23 31 -31 c17 -17 35 -31 39 -31 5 0 17 -8 28 -18 10 -10 42 -35 69 -55 61 -45 71 -54 208 -161 59 -46 132 -106 162 -132 l55 -47 36 -1 36 -1 20 26 20 27 -7 21 -6 21 -115 85 -115 85 10 18 c6 9 27 36 48 59 l38 42 95 -10 c52 -5 111 -14 130 -19 19 -6 61 -10 92 -10 l57 0 20 26 c26 33 26 45 1 74 l-20 24 -113 8 c-61 4 -134 11 -162 16 l-50 7 -2 62 -2 61 -19 38 c-23 45 -49 70 -112 109 l-44 28 -66 3 c-36 2 -75 0 -86 -4z m117 -122 c19 -5 48 -23 64 -40 l28 -30 4 -52 4 -53 -18 -33 c-29 -51 -87 -121 -101 -122 -19 0 -222 159 -222 174 0 12 29 52 85 114 l30 34 35 8 c48 11 51 11 91 0z"></path> <path d="M2617 3947 c-51 -46 -114 -103 -142 -128 -27 -24 -72 -65 -100 -90 -27 -25 -84 -74 -125 -109 -41 -35 -84 -72 -94 -82 l-20 -18 0 -35 0 -34 55 -58 c60 -65 150 -167 229 -260 l53 -63 36 0 c43 0 56 8 65 38 l7 22 -21 28 c-12 15 -64 72 -115 128 -108 116 -165 183 -165 193 0 4 17 22 38 41 20 18 59 52 86 76 65 59 39 76 225 -144 l45 -52 31 0 c39 0 55 16 55 55 l0 30 -42 46 c-24 26 -71 77 -105 113 -35 37 -63 71 -63 75 0 5 41 43 91 86 l90 78 32 -35 c18 -20 57 -64 87 -99 30 -35 59 -69 65 -75 5 -6 24 -28 40 -49 17 -21 38 -46 48 -56 l17 -19 33 0 c39 0 52 8 61 38 l8 23 -18 27 c-9 15 -41 52 -69 82 -29 30 -94 102 -145 160 -159 181 -149 179 -273 67z"></path> <path d="M14852 3604 l-22 -15 0 -40 0 -39 34 -72 c19 -40 42 -91 51 -113 9 -22 23 -53 31 -70 31 -67 104 -238 104 -246 0 -4 13 -36 28 -71 16 -35 37 -82 47 -106 20 -47 40 -62 78 -62 l25 0 16 25 c22 33 20 47 -13 113 -16 31 -32 67 -36 80 l-7 23 123 125 123 124 19 0 c10 0 48 -13 84 -30 77 -36 83 -36 117 -9 l26 20 0 22 c-1 42 -28 61 -145 102 -27 10 -63 23 -80 30 -16 7 -59 23 -95 35 -36 13 -69 26 -75 30 -5 4 -39 17 -75 30 -36 13 -69 27 -74 32 -6 4 -16 8 -24 8 -11 0 -46 14 -127 50 -95 43 -104 45 -133 24z m221 -179 c34 -14 71 -30 82 -34 11 -5 45 -19 75 -31 78 -30 100 -42 100 -53 0 -13 -136 -156 -167 -176 l-21 -15 -16 13 c-9 8 -16 20 -16 29 0 8 -11 38 -24 66 -13 28 -33 74 -45 101 -12 28 -29 62 -37 78 -28 51 -14 55 69 22z"></path> <path d="M14348 3090 c-40 -10 -105 -48 -135 -78 -10 -10 -46 -40 -80 -66 -82 -61 -103 -103 -70 -138 15 -16 340 -407 420 -506 l58 -72 30 0 29 0 20 20 c23 23 26 62 7 82 -6 7 -43 48 -80 90 l-69 77 9 14 c4 8 37 39 73 68 76 63 83 71 112 124 l22 40 0 70 0 70 -28 52 c-66 121 -196 183 -318 153z m123 -124 c19 -8 47 -28 64 -46 l29 -31 4 -71 4 -71 -77 -73 c-42 -41 -83 -74 -90 -74 -7 0 -48 44 -91 98 -42 53 -82 102 -89 107 -6 6 -14 18 -18 27 l-6 17 13 13 c105 104 182 135 257 104z"></path> <path d="M3713 2953 c-21 -25 -63 -76 -93 -112 -31 -36 -72 -87 -92 -114 -20 -26 -58 -73 -86 -105 -27 -31 -115 -136 -196 -232 l-145 -175 -1 -31 0 -32 25 -16 c48 -31 74 -15 171 109 21 28 42 52 45 55 3 3 23 28 45 55 71 91 434 524 444 530 6 3 10 26 10 50 l0 44 -19 11 c-11 5 -31 10 -45 10 l-25 0 -38 -47z"></path> <path d="M13196 2288 c-17 -25 -21 -64 -7 -72 7 -5 103 -159 146 -235 6 -11 22 -36 36 -57 13 -22 30 -48 37 -59 6 -11 61 -101 121 -200 60 -99 118 -197 130 -218 12 -21 29 -49 37 -63 l16 -24 38 0 37 0 16 18 c23 25 21 50 -5 92 -49 77 -212 345 -309 505 -56 94 -113 186 -126 206 -12 19 -23 39 -23 45 0 5 -14 26 -31 47 l-30 37 -34 0 -34 0 -15 -22z"></path> <path d="M4755 2240 c-22 -16 -56 -41 -75 -55 -60 -44 -93 -69 -147 -110 -28 -22 -118 -87 -199 -145 -81 -58 -162 -119 -181 -136 l-33 -32 0 -25 0 -26 30 -21 29 -21 33 17 c18 9 54 34 79 56 59 49 57 49 156 -15 24 -15 45 -27 48 -27 3 0 24 -12 48 -27 23 -15 55 -34 71 -43 16 -8 34 -23 40 -32 l10 -17 -12 -59 c-7 -32 -12 -72 -12 -89 l0 -30 18 -16 c23 -21 60 -21 86 -2 l18 14 10 48 c5 26 13 95 18 153 5 58 14 125 19 150 6 25 17 101 26 170 15 112 27 190 42 272 l5 27 -18 25 -19 25 -25 0 c-14 0 -43 -13 -65 -29z m-21 -232 c-3 -35 -12 -94 -20 -131 -8 -38 -14 -85 -14 -105 0 -20 -4 -43 -9 -51 l-9 -14 -110 64 c-61 35 -114 71 -117 79 l-6 15 23 18 c128 101 245 187 256 187 l13 0 -7 -62z"></path> <path d="M5387 1916 c-9 -7 -29 -42 -43 -77 -14 -35 -38 -91 -53 -124 -16 -33 -35 -76 -44 -95 -21 -48 -65 -147 -87 -195 -94 -205 -94 -206 -85 -236 l7 -21 76 -35 c43 -19 91 -41 107 -48 17 -8 50 -21 75 -29 l45 -16 80 0 80 0 53 19 c112 41 206 142 258 276 l19 50 0 100 0 100 -38 67 c-48 85 -169 198 -212 198 -4 0 -40 16 -81 36 -40 19 -88 37 -106 40 l-33 4 -18 -14z m131 -140 c15 -8 43 -22 62 -31 19 -8 55 -32 80 -54 l45 -38 25 -49 24 -49 -1 -80 0 -80 -26 -50 c-39 -76 -72 -116 -124 -148 l-46 -29 -54 -8 c-73 -9 -137 2 -217 39 l-66 31 0 18 c0 10 4 22 8 28 5 5 18 32 30 60 11 27 36 84 55 125 19 41 46 101 60 134 14 33 39 90 57 128 l31 67 15 0 c9 0 28 -7 42 -14z"></path> <path d="M12335 1842 c-6 -5 -55 -28 -110 -52 -55 -24 -123 -54 -152 -66 -28 -13 -57 -24 -62 -24 -6 0 -19 -4 -29 -9 -9 -6 -39 -20 -65 -32 l-48 -23 -5 -22 -6 -22 21 -45 c12 -25 21 -48 21 -51 0 -2 13 -33 28 -68 16 -35 44 -99 61 -143 18 -44 37 -89 42 -100 12 -30 78 -193 99 -245 l18 -45 25 -14 25 -15 43 14 c24 8 70 27 102 42 31 16 62 28 67 28 6 0 18 4 28 9 35 19 85 41 95 41 9 0 39 12 125 51 l43 19 8 23 9 22 -11 20 c-14 28 -27 35 -65 35 l-33 0 -57 -29 c-31 -16 -113 -52 -181 -81 l-123 -53 -19 24 c-10 13 -19 28 -19 32 0 5 -6 23 -14 40 -29 64 -46 110 -46 126 l0 16 48 18 c103 40 128 50 157 62 17 7 39 15 49 17 10 1 28 15 39 30 l20 27 -13 30 -13 31 -21 6 -21 5 -70 -32 c-39 -17 -90 -40 -115 -50 -25 -11 -53 -24 -62 -29 -10 -6 -26 -10 -36 -10 l-18 0 -37 88 c-20 48 -38 98 -39 111 l-3 25 85 34 c124 50 153 62 171 72 9 5 34 13 56 19 22 6 55 21 74 34 l34 23 3 23 4 23 -23 24 -22 24 -27 0 c-14 0 -30 -4 -35 -8z"></path> <path d="M6219 1558 l-20 -33 6 -30 c9 -47 33 -233 56 -435 5 -52 14 -120 19 -150 5 -30 9 -86 9 -123 l1 -68 25 -24 c13 -14 34 -25 45 -25 l22 0 28 33 c15 17 85 100 156 182 135 157 139 162 276 315 109 122 122 161 62 188 -41 20 -70 0 -155 -109 -23 -29 -148 -182 -278 -338 -20 -24 -45 -52 -56 -63 l-20 -19 -7 18 c-3 10 -7 47 -7 83 -1 36 -6 94 -11 130 -5 36 -15 142 -20 235 -15 234 -26 265 -89 265 l-21 0 -21 -32z"></path> <path d="M11340 1464 c-14 -5 -45 -13 -175 -50 -97 -27 -120 -59 -91 -126 8 -18 22 -60 31 -93 9 -33 23 -78 30 -100 21 -66 64 -215 91 -315 8 -30 19 -69 24 -86 6 -17 10 -37 10 -46 0 -8 9 -27 21 -42 l20 -26 23 0 c13 0 33 8 44 19 l22 18 0 29 c0 16 -6 46 -14 69 -8 22 -24 73 -37 113 l-22 73 14 13 c18 17 75 36 108 36 l26 0 55 -52 c30 -28 82 -76 115 -108 104 -98 117 -103 160 -66 l27 23 -6 30 -7 30 -112 93 c-62 51 -116 100 -120 110 l-9 17 26 28 c14 15 31 46 37 69 l11 41 -4 65 -5 66 -25 39 c-61 95 -189 157 -268 129z m81 -124 c43 -12 82 -52 100 -102 l13 -38 -13 -37 c-25 -70 -104 -121 -196 -126 l-47 -2 -19 65 c-10 36 -26 85 -34 110 -8 25 -15 57 -15 71 l0 26 53 16 c45 14 75 21 112 26 6 0 26 -4 46 -9z"></path> <path d="M7233 1283 c-21 -21 -36 -83 -78 -323 -7 -41 -20 -109 -29 -150 -14 -74 -43 -221 -53 -270 l-5 -25 22 -20 22 -20 62 -13 c33 -6 93 -18 131 -26 39 -8 99 -20 135 -26 36 -6 76 -15 90 -20 14 -5 42 -11 62 -15 l37 -6 20 23 c12 12 21 34 21 48 l0 27 -19 17 -19 17 -63 9 c-58 9 -117 19 -293 49 -32 6 -61 12 -63 14 -12 12 37 247 52 247 5 0 53 -9 105 -21 52 -11 119 -25 148 -31 l52 -10 25 16 25 16 0 30 0 30 -26 16 -26 17 -91 14 c-226 35 -204 22 -188 116 7 39 15 89 18 110 8 56 4 57 311 -8 l133 -28 24 11 25 12 0 40 0 39 -28 15 c-15 8 -59 19 -97 25 -78 12 -214 36 -290 51 -27 5 -69 12 -91 16 l-42 6 -19 -19z"></path> <path d="M10602 1267 l-22 -23 0 -31 c0 -16 4 -43 10 -59 5 -16 14 -58 20 -94 22 -139 30 -188 46 -258 l16 -72 -4 -54 -4 -53 -29 -37 c-16 -20 -47 -47 -69 -59 l-41 -22 -96 0 -96 0 -36 27 c-40 31 -64 72 -72 127 -4 20 -12 68 -20 106 -7 39 -21 122 -30 185 -21 144 -34 200 -53 223 l-15 17 -28 0 -28 0 -21 -27 -21 -28 5 -25 c3 -14 15 -77 27 -140 11 -63 24 -137 29 -165 5 -27 15 -84 21 -125 6 -41 22 -98 36 -127 l24 -52 48 -43 48 -43 50 -17 51 -18 74 0 74 0 50 16 c111 36 183 92 224 175 l21 44 0 88 c0 48 -3 92 -7 98 -3 5 -12 51 -20 102 -7 51 -18 117 -23 147 -5 30 -14 86 -20 124 l-10 69 -22 23 c-28 30 -59 30 -87 1z"></path> <path d="M8123 1148 c-20 -26 -25 -58 -34 -238 -5 -102 -13 -225 -19 -275 -5 -49 -12 -133 -16 -186 l-6 -97 21 -21 c27 -27 65 -27 90 0 l19 21 6 106 c18 306 29 448 36 455 6 7 24 -13 55 -65 52 -85 203 -318 245 -378 12 -17 34 -55 49 -85 6 -11 23 -38 39 -60 l28 -40 39 0 40 0 12 26 13 26 10 227 c5 125 12 231 15 236 9 14 25 263 19 282 -3 10 -17 24 -32 32 l-27 14 -20 -8 c-12 -4 -27 -16 -35 -25 l-15 -18 -6 -161 c-4 -89 -10 -212 -15 -274 l-7 -113 -10 -6 c-6 -4 -12 -2 -14 3 -2 5 -31 52 -66 105 -82 126 -214 332 -283 442 l-56 87 -33 0 c-18 0 -37 -6 -42 -12z"></path> <path d="M9629 1145 c-3 -2 -113 -9 -245 -14 -131 -6 -254 -13 -272 -17 l-33 -7 -13 -26 -14 -26 15 -29 15 -28 131 3 132 4 6 -170 c4 -93 10 -246 14 -338 l8 -168 19 -25 19 -24 24 0 c12 0 33 9 46 19 l24 19 -2 79 c-1 43 -7 139 -13 213 -6 74 -12 196 -13 270 l-2 135 117 5 116 5 21 19 c27 25 27 60 -1 86 l-22 20 -36 0 c-20 0 -39 -2 -41 -5z"></path> </g> </svg>